<svg width="60" height="54" viewBox="0 0 60 54" fill="none" xmlns="http://www.w3.org/2000/svg">
<path d="M39 6.00003C35.778 6.00003 32.734 6.75103 30.003 8.05403C29.49 7.80903 28.971 7.58303 28.446 7.38203C28.528 7.12303 28.513 6.83503 28.367 6.58103L26.867 3.98303C26.59 3.50403 25.978 3.34103 25.5 3.61703C25.021 3.89303 24.858 4.50503 25.134 4.98303L26.087 6.63303C24.432 6.21603 22.733 6.00003 21 6.00003C12.269 6.00003 4.771 11.359 1.608 18.957H1.605L1.326 19.711C1.309 19.756 1.299 19.802 1.282 19.847C1.098 20.354 0.93 20.866 0.785 21.39C0.751 21.51 0.723 21.631 0.692 21.752C0.57 22.222 0.456 22.695 0.367 23.177C0.318 23.434 0.287 23.693 0.249 23.951C0.196 24.312 0.136 24.67 0.101 25.037C0.037 25.69 0 26.344 0 27C0 27.706 0.036 28.414 0.107 29.118C0.153 29.578 0.237 30.026 0.312 30.476C0.352 30.714 0.372 30.956 0.42 31.193L0.423 31.205C1.693 37.427 5.726 42.65 11.177 45.548L11.614 45.767C11.789 45.855 11.967 45.932 12.143 46.014C12.565 46.211 12.993 46.396 13.43 46.566C13.682 46.664 13.936 46.757 14.191 46.845C14.544 46.967 14.9 47.08 15.262 47.183C15.617 47.284 15.974 47.377 16.333 47.459C16.584 47.516 16.834 47.572 17.088 47.621C17.556 47.71 18.027 47.781 18.502 47.837C18.757 47.867 19.014 47.891 19.272 47.912C19.75 47.951 20.23 47.979 20.714 47.986H20.735C20.825 47.988 20.911 48 21 48C21.077 48 21.153 47.994 21.23 47.993L21.433 47.996L21.436 47.987C23.018 47.955 24.571 47.749 26.086 47.366L25.133 49.016C24.857 49.495 25.021 50.106 25.499 50.382C25.656 50.473 25.829 50.516 25.998 50.516C26.344 50.516 26.68 50.337 26.865 50.016L28.365 47.418C28.511 47.164 28.527 46.876 28.444 46.617C28.969 46.416 29.488 46.19 30.001 45.945C32.734 47.249 35.778 48 39 48C50.58 48 60 38.579 60 27C60 15.421 50.58 6.00003 39 6.00003ZM2.499 22.74C2.522 22.64 2.551 22.542 2.576 22.443C2.678 22.038 2.786 21.635 2.914 21.234C4.719 21.833 6 23.545 6 25.5C6 27.731 4.367 29.587 2.251 29.939C2.218 29.726 2.18 29.515 2.153 29.3C2.13 29.113 2.105 28.927 2.088 28.74C2.036 28.166 2 27.587 2 27C2 26.429 2.036 25.866 2.086 25.308C2.109 25.061 2.141 24.815 2.174 24.569C2.21 24.291 2.253 24.015 2.301 23.741C2.36 23.407 2.421 23.072 2.499 22.74ZM2.661 31.89C5.692 31.34 8 28.687 8 25.5C8 22.702 6.182 20.254 3.614 19.365C6.561 12.682 13.24 8.00003 21 8.00003C23.34 8.00003 25.614 8.42403 27.784 9.26403C27.717 9.30603 27.655 9.35303 27.588 9.39603C27.38 9.53103 27.174 9.67003 26.971 9.81203C26.54 10.112 26.119 10.423 25.715 10.752C25.69 10.773 25.663 10.791 25.638 10.811C25.14 11.22 24.67 11.656 24.215 12.105C24.18 12.14 24.145 12.175 24.11 12.21C24.041 12.279 23.971 12.346 23.904 12.415C23.963 12.288 24 12.149 24 12C24 11.448 23.552 11 23 11C22.448 11 22 11.448 22 12C22 12.552 22.448 13 23 13C23.182 13 23.344 12.938 23.491 12.853C22.283 14.17 21.255 15.632 20.425 17.204C20.174 17.386 20 17.667 20 18C20 18.009 20.005 18.016 20.005 18.025C19.829 18.398 19.664 18.777 19.51 19.16C19.358 19.068 19.19 19 19 19C18.448 19 18 19.448 18 20C18 20.511 18.389 20.917 18.885 20.977C18.719 21.535 18.573 22.1 18.453 22.674C18.443 22.722 18.43 22.769 18.421 22.817C18.391 22.965 18.365 23.114 18.338 23.263C18.134 23.445 18 23.704 18 24C18 24.186 18.064 24.35 18.153 24.499C18.146 24.561 18.142 24.624 18.135 24.687C18.121 24.815 18.11 24.944 18.098 25.073C18.04 25.709 18 26.351 18 27C18 27.29 18.016 27.577 18.027 27.864C18.021 27.911 18 27.952 18 28C18 28.066 18.025 28.124 18.038 28.187C18.052 28.436 18.076 28.682 18.098 28.928C18.11 29.057 18.121 29.186 18.135 29.314C18.204 29.944 18.297 30.569 18.421 31.184C18.422 31.191 18.423 31.198 18.424 31.205C18.174 31.386 18 31.667 18 32C18 32.506 18.382 32.908 18.87 32.974C18.89 33.041 18.909 33.108 18.929 33.175C18.939 33.206 18.947 33.237 18.956 33.268C19.171 33.958 19.423 34.634 19.707 35.294C19.527 35.113 19.277 35 19 35C18.448 35 18 35.448 18 36C18 36.552 18.448 37 19 37C19.552 37 20 36.552 20 36C20 35.976 19.988 35.956 19.986 35.932C20.172 36.327 20.37 36.717 20.58 37.099C20.24 37.258 20 37.599 20 38C20 38.552 20.448 39 21 39C21.235 39 21.442 38.906 21.613 38.77C21.785 39.022 21.958 39.274 22.14 39.519C22.059 39.664 22 39.822 22 40C22 40.552 22.448 41 23 41C23.108 41 23.208 40.97 23.306 40.938C23.548 41.209 23.797 41.474 24.054 41.733C24.029 41.82 24 41.906 24 42C24 42.552 24.448 43 25 43C25.121 43 25.235 42.971 25.342 42.931C25.442 43.016 25.537 43.105 25.638 43.189C25.663 43.21 25.69 43.228 25.715 43.248C25.845 43.354 25.982 43.453 26.115 43.556C26.047 43.691 26 43.838 26 44C26 44.552 26.447 44.999 26.998 45C25.367 45.55 23.683 45.87 21.958 45.957C21.973 45.804 22 45.651 22 45.5C22 44.571 21.766 43.696 21.358 42.928C21.732 42.783 22 42.425 22 42C22 41.448 21.552 41 21 41C20.661 41 20.376 41.18 20.195 41.438C19.967 41.23 19.722 41.04 19.461 40.873C19.777 40.705 20 40.383 20 40C20 39.448 19.552 39 19 39C18.448 39 18 39.448 18 40C18 40.08 18.028 40.151 18.045 40.225C17.555 40.081 17.037 40 16.5 40C14.258 40 12.294 41.399 11.458 43.404C7.178 40.904 3.969 36.787 2.661 31.89ZM27.545 44.817C27.605 44.777 27.668 44.743 27.718 44.692C27.741 44.706 27.762 44.723 27.785 44.737C27.705 44.767 27.624 44.787 27.545 44.817ZM19.71 45.935C19.292 45.907 18.876 45.866 18.462 45.811C18.28 45.787 18.1 45.758 17.919 45.728C17.504 45.66 17.091 45.583 16.683 45.487C16.53 45.451 16.38 45.409 16.228 45.37C15.791 45.256 15.356 45.134 14.926 44.988C14.839 44.958 14.753 44.924 14.667 44.893C14.183 44.72 13.702 44.535 13.229 44.321C13.227 44.32 13.226 44.319 13.224 44.318C13.715 42.958 15.018 42 16.5 42C18.43 42 20 43.57 20 45.5C20 45.647 19.988 45.796 19.965 45.948C19.88 45.943 19.795 45.94 19.71 45.935ZM39 46C35.891 46 32.963 45.235 30.37 43.906C30.065 43.75 29.768 43.584 29.474 43.414C29.291 43.307 29.11 43.196 28.931 43.083C28.686 42.93 28.441 42.778 28.204 42.616C27.796 42.333 27.398 42.039 27.014 41.726C26.913 41.645 26.819 41.557 26.72 41.474C26.365 41.172 26.018 40.861 25.686 40.534C25.622 40.471 25.557 40.409 25.494 40.345C23.811 38.642 22.443 36.626 21.495 34.39V34.389C21.271 33.859 21.075 33.316 20.899 32.763C20.878 32.696 20.855 32.63 20.835 32.563C20.663 32.002 20.513 31.43 20.393 30.848C20.386 30.812 20.381 30.774 20.374 30.738C20.271 30.222 20.194 29.696 20.133 29.166C20.117 29.023 20.101 28.88 20.088 28.737C20.036 28.164 20 27.586 20 27C20 26.414 20.036 25.836 20.088 25.263C20.101 25.12 20.117 24.977 20.133 24.834C20.194 24.304 20.27 23.778 20.374 23.262C20.381 23.226 20.386 23.188 20.393 23.152C20.513 22.57 20.663 21.999 20.835 21.437C20.855 21.37 20.878 21.304 20.899 21.237C21.075 20.685 21.271 20.141 21.495 19.612V19.611C22.443 17.374 23.811 15.359 25.494 13.656C25.557 13.592 25.622 13.53 25.686 13.467C26.018 13.14 26.365 12.829 26.72 12.527C26.819 12.444 26.913 12.356 27.014 12.275C27.398 11.962 27.796 11.667 28.204 11.385C28.44 11.222 28.686 11.071 28.931 10.918C29.11 10.805 29.291 10.694 29.474 10.587C29.768 10.417 30.065 10.251 30.37 10.095C32.963 8.76503 35.891 8.00003 39 8.00003C49.477 8.00003 58 16.523 58 27C58 37.477 49.477 46 39 46Z" fill="#F49AC7"/>
<path d="M39 49C38.448 49 38 49.447 38 50V53C38 53.553 38.448 54 39 54C39.552 54 40 53.553 40 53V50C40 49.447 39.552 49 39 49Z" fill="#F49AC7"/>
<path d="M39 5C39.552 5 40 4.553 40 4V1C40 0.447 39.552 0 39 0C38.448 0 38 0.447 38 1V4C38 4.553 38.448 5 39 5Z" fill="#F49AC7"/>
<path d="M55.2639 11.736C55.5199 11.736 55.7759 11.638 55.9709 11.443L58.0919 9.322C58.4829 8.931 58.4829 8.299 58.0919 7.908C57.7009 7.517 57.0689 7.517 56.6779 7.908L54.5569 10.029C54.1659 10.42 54.1659 11.052 54.5569 11.443C54.7519 11.639 55.0079 11.736 55.2639 11.736Z" fill="#F49AC7"/>
<path d="M33.3059 48.2501C32.7739 48.1061 32.2239 48.4231 32.0809 48.9571L31.3039 51.8551C31.1609 52.3881 31.4769 52.9371 32.0109 53.0801C32.0969 53.1031 32.1849 53.1141 32.2699 53.1141C32.7109 53.1141 33.1159 52.8201 33.2349 52.3731L34.0119 49.4751C34.1559 48.9411 33.8399 48.3931 33.3059 48.2501Z" fill="#F49AC7"/>
<path d="M44.6941 5.75004C44.7801 5.77304 44.8681 5.78404 44.9531 5.78404C45.3941 5.78404 45.7991 5.49004 45.9181 5.04304L46.6951 2.14504C46.8381 1.61204 46.5221 1.06304 45.9881 0.920037C45.4571 0.776037 44.9061 1.09404 44.7631 1.62704L43.9861 4.52504C43.8441 5.05904 44.1601 5.60704 44.6941 5.75004Z" fill="#F49AC7"/>
<path d="M32.0819 5.04296C32.2019 5.48996 32.6059 5.78396 33.0469 5.78396C33.1319 5.78396 33.2199 5.77296 33.3059 5.74996C33.8399 5.60696 34.1559 5.05896 34.0129 4.52496L33.2359 1.62696C33.0929 1.09296 32.5439 0.774959 32.0109 0.919959C31.4769 1.06296 31.1609 1.61096 31.3039 2.14496L32.0819 5.04296Z" fill="#F49AC7"/>
<path d="M45.918 48.957C45.775 48.423 45.228 48.105 44.693 48.25C44.159 48.393 43.843 48.941 43.986 49.475L44.763 52.373C44.883 52.82 45.287 53.114 45.728 53.114C45.813 53.114 45.901 53.103 45.987 53.08C46.521 52.937 46.837 52.389 46.694 51.855L45.918 48.957Z" fill="#F49AC7"/>
<path d="M51.366 46.419C51.089 45.94 50.477 45.776 50 46.053C49.521 46.329 49.358 46.941 49.634 47.419L51.134 50.017C51.32 50.338 51.655 50.517 52.001 50.517C52.17 50.517 52.343 50.474 52.5 50.383C52.979 50.107 53.142 49.495 52.866 49.017L51.366 46.419Z" fill="#F49AC7"/>
<path d="M50 7.94703C50.157 8.03803 50.33 8.08103 50.499 8.08103C50.845 8.08103 51.181 7.90203 51.366 7.58103L52.866 4.98303C53.142 4.50403 52.978 3.89303 52.5 3.61703C52.021 3.34103 51.41 3.50403 51.134 3.98303L49.634 6.58103C49.358 7.06003 49.521 7.67103 50 7.94703Z" fill="#F49AC7"/>
<path d="M17 19C17.5523 19 18 18.5523 18 18C18 17.4477 17.5523 17 17 17C16.4477 17 16 17.4477 16 18C16 18.5523 16.4477 19 17 19Z" fill="#F49AC7"/>
<path d="M19 17C19.5523 17 20 16.5523 20 16C20 15.4477 19.5523 15 19 15C18.4477 15 18 15.4477 18 16C18 16.5523 18.4477 17 19 17Z" fill="#F49AC7"/>
<path d="M21 15C21.5523 15 22 14.5523 22 14C22 13.4477 21.5523 13 21 13C20.4477 13 20 13.4477 20 14C20 14.5523 20.4477 15 21 15Z" fill="#F49AC7"/>
<path d="M13 16C13.5523 16 14 15.5523 14 15C14 14.4477 13.5523 14 13 14C12.4477 14 12 14.4477 12 15C12 15.5523 12.4477 16 13 16Z" fill="#F49AC7"/>
<path d="M12 33C12.5523 33 13 32.5523 13 32C13 31.4477 12.5523 31 12 31C11.4477 31 11 31.4477 11 32C11 32.5523 11.4477 33 12 33Z" fill="#F49AC7"/>
<path d="M25 11C25.5523 11 26 10.5523 26 10C26 9.44772 25.5523 9 25 9C24.4477 9 24 9.44772 24 10C24 10.5523 24.4477 11 25 11Z" fill="#F49AC7"/>
<path d="M21 11C21.5523 11 22 10.5523 22 10C22 9.44772 21.5523 9 21 9C20.4477 9 20 9.44772 20 10C20 10.5523 20.4477 11 21 11Z" fill="#F49AC7"/>
<path d="M19 13C19.5523 13 20 12.5523 20 12C20 11.4477 19.5523 11 19 11C18.4477 11 18 11.4477 18 12C18 12.5523 18.4477 13 19 13Z" fill="#F49AC7"/>
<path d="M15 25C15.5523 25 16 24.5523 16 24C16 23.4477 15.5523 23 15 23C14.4477 23 14 23.4477 14 24C14 24.5523 14.4477 25 15 25Z" fill="#F49AC7"/>
<path d="M17 23C17.5523 23 18 22.5523 18 22C18 21.4477 17.5523 21 17 21C16.4477 21 16 21.4477 16 22C16 22.5523 16.4477 23 17 23Z" fill="#F49AC7"/>
<path d="M17 27C17.5523 27 18 26.5523 18 26C18 25.4477 17.5523 25 17 25C16.4477 25 16 25.4477 16 26C16 26.5523 16.4477 27 17 27Z" fill="#F49AC7"/>
<path d="M15 29C15.5523 29 16 28.5523 16 28C16 27.4477 15.5523 27 15 27C14.4477 27 14 27.4477 14 28C14 28.5523 14.4477 29 15 29Z" fill="#F49AC7"/>
<path d="M17 31C17.5523 31 18 30.5523 18 30C18 29.4477 17.5523 29 17 29C16.4477 29 16 29.4477 16 30C16 30.5523 16.4477 31 17 31Z" fill="#F49AC7"/>
<path d="M17 35C17.5523 35 18 34.5523 18 34C18 33.4477 17.5523 33 17 33C16.4477 33 16 33.4477 16 34C16 34.5523 16.4477 35 17 35Z" fill="#F49AC7"/>
<path d="M17 39C17.5523 39 18 38.5523 18 38C18 37.4477 17.5523 37 17 37C16.4477 37 16 37.4477 16 38C16 38.5523 16.4477 39 17 39Z" fill="#F49AC7"/>
<path d="M23 45C23.5523 45 24 44.5523 24 44C24 43.4477 23.5523 43 23 43C22.4477 43 22 43.4477 22 44C22 44.5523 22.4477 45 23 45Z" fill="#F49AC7"/>
</svg>
