<svg width="253" height="275" viewBox="0 0 253 275" fill="none" xmlns="http://www.w3.org/2000/svg">
<path d="M252.264 200.278C256.725 215.227 233.296 221.335 222.567 222.702C204.443 225.033 186.36 219.206 171.732 208.677C171.973 209.842 172.295 210.968 172.496 212.133C173.862 219.768 173.581 227.805 175.671 235.32C178.363 245.045 183.427 249.023 188.49 256.9C191.665 261.843 193.151 265.058 193.031 271.045C193.031 272.21 191.665 272.813 190.74 272.411C190.017 274.42 188.449 275.144 185.596 274.46C178.282 272.571 172.978 258.466 167.191 254.126C158.712 247.737 146.937 247.495 138.257 240.985C131.948 236.203 127.648 229.854 124.875 222.62C122.182 228.648 118.566 234.475 114.065 239.9C106.832 248.62 104.742 258.827 98.3521 267.307C96.7041 269.517 95.2981 272.772 92.0032 273.174C89.1901 273.495 87.7842 272.852 86.8992 271.486C83.4832 269.115 82.5992 266.342 82.5191 261.56C82.3981 257.783 84.2472 254.286 85.3722 250.83C89.8332 237.488 92.3642 228.286 88.0242 214.181C85.4122 205.742 80.8312 197.022 78.6212 188.462C73.4372 196.821 73.5582 207.671 67.6102 215.909C61.7832 224.027 52.9422 229.411 44.5842 234.475C37.7932 238.574 30.4392 242.191 24.4912 247.535C20.1112 251.473 17.7002 256.778 13.7212 260.796C11.6722 262.886 10.3452 264.252 8.53716 264.694C8.81816 265.859 7.65316 267.186 6.28716 266.422C-0.102844 262.966 -0.945846 259.47 0.782154 252.397C2.63115 244.521 9.98516 237.569 13.8022 230.536C19.9912 219.043 20.5932 207.952 21.0352 195.173C21.2762 187.377 22.9242 180.023 25.8172 173.633C26.5402 171.785 27.5052 170.057 28.3892 168.891C34.6182 158.804 44.8652 152.174 59.2522 152.093C47.5582 114.884 33.8952 68.5898 59.3322 33.7488C78.9032 6.98481 117.401 -3.54319 149.147 1.03781C181.296 5.69981 205.126 30.7348 210.269 62.6018C216.377 100.417 194.034 129.792 167.351 153.18C177.719 151.211 187.805 154.466 196.727 161.137C206.814 168.652 233.617 213.82 248.366 199.153C249.049 198.51 249.973 198.671 250.576 199.153C251.299 199.073 252.023 199.394 252.264 200.278ZM207.296 218.724C214.449 219.488 250.214 217.84 249.37 203.052C242.981 209.884 234.059 208.115 226.746 201.927C206.171 184.607 196.848 150.007 163.654 156.397C161.645 158.085 159.595 159.773 157.546 161.42C155.497 163.068 152.523 160.295 154.572 158.446C179.809 135.781 206.733 112.233 206.733 75.3018C206.733 34.6338 175.991 5.33881 136.127 4.53481C131.345 4.41381 126.482 4.73581 121.58 5.29881C125.398 8.11181 127.126 13.2958 124.795 18.5598C120.254 28.6058 106.712 36.4018 95.8212 35.3168C85.2922 34.3118 82.3991 26.4758 87.3821 17.3538C87.8642 16.5098 88.4271 15.7868 88.9492 15.0228C75.2861 21.9748 63.6322 32.3828 56.8002 46.4878C40.4042 80.2838 54.1882 118.059 62.0642 152.096C62.1042 152.377 62.0642 152.618 61.9842 152.819C62.4262 153.703 61.9842 154.949 60.7382 155.069C55.9162 155.511 51.5762 156.636 47.6372 158.284C53.0222 160.052 52.0572 167.929 49.0032 172.027C44.9042 177.532 36.5862 184.565 29.1512 183.641C28.2272 183.52 27.4632 183.279 26.8202 182.918C26.0972 185.731 25.5742 188.705 25.3332 191.839C24.8112 198.671 25.6552 205.623 24.6502 212.454C24.6102 212.816 24.4892 213.258 24.3692 213.66C26.1772 210.646 28.9102 208.396 32.3262 207.431C32.7682 207.31 33.0492 207.632 33.0902 207.994C34.5372 208.195 35.7422 209.159 36.2242 210.646C36.9072 212.856 35.7822 215.187 34.8582 217.156C33.2502 220.451 30.1562 224.872 25.8972 224.189C22.9632 223.707 22.3202 221.175 22.5622 218.683C17.1372 231.342 3.27315 253.363 6.24715 261.481C7.97515 260.758 15.2082 251.917 15.2082 251.997C17.7002 248.702 20.5932 246.009 23.8082 243.437C30.2782 238.132 37.6722 234.275 44.7452 229.935C58.8902 221.255 66.0842 213.298 70.9862 197.666C72.7542 192.04 73.9202 187.981 77.6572 183.722C76.6522 176.408 77.9792 169.255 84.5692 162.584C85.2522 161.901 86.4982 162.825 85.9352 163.629C81.2331 170.3 80.1082 176.649 80.8312 182.918C81.3132 183.44 81.5142 184.164 81.1532 184.887C83.6041 198.55 94.2132 211.731 95.3792 226.037C96.2632 237.008 82.1181 259.431 88.6282 268.754C93.9732 270 101.287 250.309 102.572 248.179C105.546 243.276 109.846 239.78 113.382 235.4C128.331 216.754 130.421 194.009 121.58 172.268C120.857 170.5 123.87 169.254 124.634 170.982C131.747 187.016 132.068 203.251 126.643 218.2C126.884 218.401 127.125 218.642 127.246 219.004C133.957 236.445 145.932 240.704 161.846 247.456C167.03 249.666 171.45 252.278 175.228 256.498C176.313 257.703 186.761 274.421 189.695 270C187.043 256.94 174.023 247.335 171.129 233.512C166.186 209.963 165.985 192.563 145.29 176.609C144.165 175.725 145.129 173.957 146.415 174.68C159.274 181.632 167.231 192.402 171.049 205.864C182.703 212.093 193.995 217.398 207.296 218.724ZM117.401 21.9748C122.264 16.4698 125.077 5.77981 113.463 6.74481C113.343 6.74481 113.182 6.70481 113.061 6.66481C108.48 7.62881 103.979 8.91481 99.5992 10.4828C93.6922 13.9388 86.0162 21.4138 90.9992 28.0438C95.7411 34.3528 105.024 31.0178 110.811 27.4008C113.101 25.9528 115.552 24.0238 117.401 21.9748ZM42.0532 173.876C44.7862 171.425 53.2652 161.941 44.8262 160.575C44.4242 160.495 44.1832 160.294 44.0222 160.012C36.8292 164.03 31.4842 170.219 28.3902 178.136C28.6312 179.02 29.3542 179.623 30.8012 179.743C34.5782 180.025 39.4412 176.207 42.0532 173.876ZM30.7202 218.081C31.3632 217.116 35.1812 210.687 32.1672 210.566C31.5642 210.526 31.2432 210.164 31.0822 209.762C28.1892 211.852 25.8582 214.946 25.4562 218.563C24.9342 223.184 29.3942 220.01 30.7202 218.081Z" fill="#1D1D1B"/>
<path d="M249.371 203.051C250.215 217.839 214.45 219.487 207.297 218.723C193.996 217.397 182.703 212.092 171.05 205.864C167.232 192.402 159.276 181.632 146.416 174.68C145.13 173.957 144.166 175.725 145.291 176.609C165.987 192.563 166.188 209.963 171.13 233.512C174.023 247.336 187.043 256.94 189.696 270C186.762 274.421 176.314 257.703 175.229 256.498C171.452 252.278 167.031 249.666 161.847 247.456C145.934 240.705 133.958 236.445 127.247 219.004C127.127 218.642 126.885 218.401 126.644 218.2C132.069 203.251 131.748 187.016 124.635 170.982C123.871 169.254 120.858 170.5 121.581 172.268C130.422 194.008 128.332 216.754 113.383 235.4C109.847 239.78 105.547 243.276 102.573 248.179C101.287 250.309 93.9733 270 88.6293 268.754C82.1193 259.431 96.2643 237.007 95.3803 226.037C94.2153 211.731 83.6063 198.55 81.1543 184.887C81.5163 184.164 81.3153 183.44 80.8323 182.918C80.1093 176.649 81.2343 170.3 85.9363 163.629C86.4993 162.825 85.2533 161.901 84.5703 162.584C77.9803 169.255 76.6533 176.408 77.6583 183.722C73.9213 187.982 72.7553 192.04 70.9873 197.666C66.0843 213.298 58.8913 221.255 44.7463 229.935C37.6733 234.275 30.2793 238.133 23.8093 243.437C20.5943 246.009 17.7013 248.701 15.2093 251.997C15.2093 251.917 7.97633 260.757 6.24833 261.481C3.27433 253.363 17.1383 231.342 22.5633 218.683C22.3223 221.175 22.9653 223.706 25.8983 224.189C30.1583 224.872 33.2523 220.452 34.8593 217.156C35.7833 215.187 36.9083 212.856 36.2253 210.646C35.7433 209.159 34.5373 208.195 33.0913 207.994C33.0513 207.632 32.7703 207.311 32.3273 207.431C28.9113 208.395 26.1793 210.646 24.3703 213.66C24.4913 213.258 24.6113 212.816 24.6513 212.454C25.6563 205.622 24.8123 198.67 25.3343 191.839C25.5753 188.704 26.0983 185.731 26.8213 182.918C27.4643 183.28 28.2283 183.521 29.1523 183.641C36.5863 184.565 44.9053 177.533 49.0043 172.027C52.0583 167.928 53.0233 160.052 47.6383 158.284C51.5763 156.636 55.9163 155.511 60.7393 155.069C61.9853 154.949 62.4273 153.703 61.9853 152.819C62.0653 152.618 62.1063 152.377 62.0653 152.096C54.1893 118.059 40.4053 80.2838 56.8013 46.4878C63.6333 32.3828 75.2863 21.9748 88.9503 15.0228C88.4283 15.7868 87.8653 16.5098 87.3833 17.3538C82.4003 26.4758 85.2933 34.3118 95.8223 35.3168C106.712 36.4018 120.255 28.6058 124.796 18.5598C127.127 13.2958 125.399 8.11178 121.581 5.29878C126.484 4.73578 131.346 4.41478 136.128 4.53478C175.992 5.33878 206.734 34.6338 206.734 75.3018C206.734 112.233 179.81 135.781 154.573 158.446C152.524 160.295 155.497 163.067 157.547 161.42C159.596 159.772 161.646 158.085 163.655 156.397C196.848 150.008 206.171 184.607 226.747 201.927C234.06 208.115 242.981 209.883 249.371 203.051ZM210.712 190.674C212.761 187.7 210.31 184.164 207.658 182.597C204.845 180.949 200.063 180.347 197.531 182.798C196.848 183.441 197.169 184.245 197.812 184.606C197.29 190.071 207.095 195.938 210.712 190.674ZM203.358 67.3438C203.438 68.0268 204.443 67.7058 204.363 67.0628C203.961 64.1698 203.479 61.3568 202.956 58.5028C202.836 58.0608 202.072 58.1818 202.152 58.6238C202.474 61.5578 202.836 64.4508 203.358 67.3438ZM201.63 70.9208C202.313 66.9018 201.349 63.1248 199.098 59.7088C198.576 58.8648 197.25 59.6288 197.772 60.5128C199.58 63.6068 200.223 67.1028 200.063 70.6798C200.023 71.5638 201.469 71.8048 201.63 70.9208ZM196.245 183.762C202.755 179.623 199.781 170.34 194.879 166.362C191.303 163.469 186.681 162.504 182.18 162.625C180.332 162.705 178.202 162.746 176.634 163.589C171.49 165.196 173.218 173.997 175.951 177.533C179.93 182.677 190.016 187.741 196.245 183.762ZM191.584 204.257C192.629 204.579 193.151 203.132 192.307 202.569C190.258 201.283 188.007 200.399 185.797 199.475C184.632 198.993 183.587 200.64 184.792 201.203C187.002 202.328 189.213 203.533 191.584 204.257ZM186.801 205.583C187.605 205.663 187.766 204.337 187.002 204.177C183.747 203.454 180.894 202.449 178.201 200.359C177.759 199.997 177.156 200.56 177.558 201.002C180.09 203.413 183.305 205.181 186.801 205.583ZM183.868 113.558C184.109 112.995 183.185 112.634 182.904 113.156C181.658 115.406 180.372 117.617 178.805 119.626C178.443 120.108 179.247 120.751 179.649 120.309C181.376 118.219 182.863 116.049 183.868 113.558ZM181.939 121.595C182.542 120.952 181.738 119.787 180.975 120.349C177.68 122.76 174.706 125.653 171.732 128.426C171.049 129.069 172.054 129.993 172.737 129.471C175.871 126.94 179.126 124.488 181.939 121.595ZM176.353 89.6468C178.443 86.8338 179.327 83.1768 178.523 79.7608C178.362 79.0778 177.759 78.5148 177.117 78.2338C177.037 78.1138 176.996 77.9528 176.916 77.8318C176.152 76.4658 173.621 76.9878 173.822 78.6758C173.902 79.4388 173.983 80.1628 173.983 80.8858C173.983 80.9258 173.983 80.9258 173.983 80.9658C174.023 83.1758 173.621 85.2658 172.295 87.2748C170.607 89.8478 174.625 92.0178 176.353 89.6468ZM175.63 251.395C176.112 252.158 177.237 251.475 176.836 250.712C176.072 249.225 175.068 248.18 173.661 247.336C172.898 246.894 172.255 248.019 172.978 248.501C174.103 249.265 174.947 250.229 175.63 251.395ZM168.396 113.598C169.682 112.915 168.758 111.066 167.472 111.388C157.707 113.558 148.906 113.357 140.708 106.767C140.065 106.245 139.181 107.088 139.784 107.691C146.857 114.884 158.993 118.581 168.396 113.598ZM166.347 229.172C168.276 226.399 166.789 221.939 164.499 219.809C163.133 218.563 160.36 218.282 159.034 219.568C158.753 219.488 158.391 219.568 158.19 219.849C156.422 222.582 156.301 226.922 158.712 229.293C160.761 231.302 164.579 231.744 166.347 229.172ZM161.685 18.4778C161.805 17.4728 160.319 17.3928 160.037 18.2768C159.193 20.6078 158.389 22.6168 156.581 24.3848C155.898 25.1078 156.943 26.1128 157.666 25.4698C159.756 23.6618 161.404 21.2508 161.685 18.4778ZM160.962 212.495C163.052 205.905 159.998 197.144 154.613 192.925C151.318 190.313 144.928 190.755 144.928 195.537C143.321 201.444 144.727 207.954 148.625 212.737C152.081 216.996 158.872 219.166 160.962 212.495ZM157.265 18.4378C157.386 17.7548 156.26 17.4738 155.979 18.0758C154.894 20.4868 153.889 22.4158 151.478 23.7418C151.036 23.9828 151.357 24.8268 151.88 24.6258C154.532 23.5418 156.903 21.3718 157.265 18.4378ZM151.719 88.2808C153.286 86.2318 154.09 83.6198 154.05 81.0878C154.01 79.1988 153.568 76.8688 152.282 75.3818C152.081 75.0198 151.8 74.7388 151.438 74.5778C151.358 74.5378 151.318 74.4568 151.237 74.4168C149.871 73.6528 148.062 74.5778 148.103 76.1848C148.143 77.4308 148.666 78.5158 149.027 79.6808C148.947 81.7708 148.625 83.8598 147.661 85.9098C146.375 88.6828 149.911 90.6518 151.719 88.2808ZM153.166 223.104C154.372 222.983 154.372 221.255 153.166 221.215C149.147 221.054 145.33 219.929 141.914 217.799C140.789 217.116 139.865 218.804 140.909 219.527C144.526 222.139 148.665 223.425 153.166 223.104ZM143.321 27.0378C147.741 26.0328 152.724 21.5728 152.081 16.6698C151.8 14.6198 150.634 12.7718 148.585 12.1288C147.219 11.6868 145.812 11.8078 144.848 12.6918C140.669 13.4958 135.565 15.8668 134.681 20.1258C133.636 24.9888 139.181 27.9618 143.321 27.0378ZM149.147 216.795C150.152 216.875 150.272 215.348 149.388 215.067C146.816 214.344 144.646 213.259 143.119 211.049C142.637 210.406 141.552 210.969 141.994 211.732C143.481 214.424 146.013 216.433 149.147 216.795ZM130.461 19.8848C132.269 17.8348 133.475 14.9818 132.953 12.2098C132.792 11.2858 131.506 11.6068 131.426 12.4108C131.145 14.9018 130.823 16.9118 129.377 19.0418C128.934 19.6838 129.939 20.4478 130.461 19.8848ZM131.305 40.1788C131.868 38.6518 131.787 36.8028 130.421 35.7588C130.26 35.6378 130.099 35.5578 129.899 35.4778C129.859 35.3168 129.738 35.1968 129.537 35.2368C129.497 35.2368 129.457 35.2368 129.416 35.2368C128.733 35.0358 128.05 35.0758 127.447 35.4378C124.714 35.8398 122.263 37.0858 120.455 39.3358C118.245 42.0688 118.968 45.8858 122.987 45.8458C126.443 45.8048 130.099 43.4738 131.305 40.1788ZM111.373 202.81C112.739 200.359 113.342 197.867 112.739 195.054C112.538 194.13 111.132 194.371 111.132 195.295C111.092 197.586 110.77 199.836 109.766 201.885C109.243 202.931 110.77 203.855 111.373 202.81ZM107.595 200.68C109.122 198.51 109.685 195.858 108.64 193.366C108.359 192.723 107.153 193.044 107.233 193.768C107.514 195.978 107.514 197.947 106.309 199.916C105.787 200.761 107.073 201.484 107.595 200.68ZM102.532 199.234C106.671 192.443 101.929 182.718 97.4283 177.293C95.6603 175.163 93.2893 173.315 90.3953 174.319C88.5463 175.002 87.4613 176.368 87.4613 178.096C86.0553 179.703 86.0553 182.637 85.8943 184.606C85.6133 188.625 86.2963 192.844 88.3053 196.34C91.3203 201.645 98.4333 205.945 102.532 199.234ZM102.532 212.857C102.934 209.763 100.442 207.352 98.3933 205.423C98.1123 205.142 97.7903 205.142 97.5093 205.182C97.3483 205.021 97.1073 204.941 96.8663 205.102C94.6163 206.629 93.6113 209.201 93.8123 211.893C94.0133 214.224 95.3393 217.117 98.0313 217.157C100.362 217.156 102.251 215.027 102.532 212.857ZM101.688 237.772C102.411 235.763 102.532 231.905 100.241 230.86C99.7593 230.619 99.0353 230.78 98.7943 231.302C96.5033 231.543 95.0573 233.472 94.1323 235.522C93.1683 237.732 92.6853 241.148 95.8203 241.751C98.4333 242.272 100.844 240.062 101.688 237.772ZM99.8803 62.6828C104.14 57.9008 107.716 47.1308 99.5583 45.1618C99.4783 45.0008 99.3173 44.8408 99.1163 44.7598C89.2303 40.9018 77.6973 45.4428 71.3483 53.5198C66.4853 59.7488 62.7083 71.7638 72.9553 74.8178C83.0023 77.8728 93.6513 69.6748 99.8803 62.6828ZM99.5183 244.844C99.9203 244.201 98.9153 243.438 98.4333 244.04C96.7853 246.009 95.3393 248.099 93.8523 250.229C93.4103 250.832 94.4553 251.676 94.9373 251.033C96.5043 249.024 98.0713 247.014 99.5183 244.844ZM95.8613 135.539C96.5043 136.182 97.7103 135.298 97.1473 134.534C95.3793 132.042 94.4953 129.189 95.1383 126.175C95.3393 125.17 93.8523 124.728 93.5713 125.733C92.6463 129.23 93.3303 132.887 95.8613 135.539ZM83.3233 34.0708C84.0463 34.7138 85.0513 33.7088 84.4083 32.9858C83.5243 31.9808 83.1623 30.6548 82.9613 29.3288C82.8403 28.6858 81.8763 28.7658 81.7153 29.3288C81.1943 31.2168 81.8773 32.7848 83.3233 34.0708ZM83.9263 81.5698C84.4483 80.7258 83.2033 80.0828 82.6403 80.8468C80.8723 83.2178 77.7783 83.9408 75.0853 82.7758C74.4023 82.4948 73.8803 83.3388 74.4823 83.7808C77.6173 85.9098 81.9973 84.7448 83.9263 81.5698ZM79.9083 36.9638C80.3903 37.4458 81.2743 36.8438 80.8723 36.1998C79.7073 34.4718 78.9433 32.7838 79.2653 30.6538C79.3863 29.8498 78.1803 29.4888 78.0603 30.2918C77.6173 32.7038 78.0593 35.2758 79.9083 36.9638ZM79.1043 78.7168C79.7473 78.3548 79.3053 77.2298 78.5823 77.5108C76.5733 78.3148 74.5233 78.4348 72.4343 77.7118C71.7513 77.5108 71.2693 78.5958 71.9523 78.8768C74.3623 79.9218 76.7333 79.9218 79.1043 78.7168ZM64.3563 122.881C64.7983 123.444 65.6423 122.72 65.3203 122.117C64.0343 119.384 63.0703 116.933 62.8283 113.919C62.7483 113.115 61.5823 113.075 61.5423 113.919C61.5033 117.094 62.3873 120.349 64.3563 122.881ZM57.7253 91.3748C60.4583 90.3298 62.9893 86.2308 62.9493 83.3378C62.9493 81.1278 60.6993 77.8328 58.2873 78.3548C58.0463 78.2338 57.8053 78.1938 57.6043 78.3548C54.9113 80.2038 52.9423 83.5788 52.8623 86.8738C52.8223 89.5668 54.7113 92.4998 57.7253 91.3748ZM60.2173 123.243C60.6593 123.886 61.7043 123.323 61.3023 122.6C59.5343 119.626 58.6103 116.371 58.6503 112.875C58.6903 112.152 57.6053 112.192 57.5653 112.875C57.2833 116.612 58.1273 120.148 60.2173 123.243ZM59.9353 51.5108C60.3373 50.7878 59.2923 49.8628 58.7303 50.5868C56.8413 52.7968 55.9973 55.2478 55.8373 58.1418C55.7973 59.0258 57.2443 59.2268 57.4043 58.3428C57.8463 55.9318 58.7703 53.6808 59.9353 51.5108ZM59.0113 173.193C59.0513 172.349 57.6453 172.108 57.5243 172.952C57.1223 175.283 56.0773 177.171 53.9483 178.257C53.3853 178.538 53.7873 179.543 54.3903 179.302C57.0023 178.297 58.9313 176.046 59.0113 173.193ZM56.5603 215.589C56.9223 214.665 55.3953 214.022 54.9533 214.906C53.6673 217.317 51.4173 218.965 48.6843 219.125C47.6393 219.165 47.6393 220.652 48.6843 220.692C52.2203 220.854 55.2743 218.925 56.5603 215.589ZM51.1353 175.886C53.5063 174.359 54.8723 172.028 54.7923 169.175C54.7523 168.251 53.5063 168.291 53.3853 169.175C53.1443 171.305 52.0993 173.274 50.3313 174.6C49.5673 175.162 50.2513 176.448 51.1353 175.886ZM54.4303 211.37C54.5103 210.647 53.4653 210.446 53.1043 211.008C52.3403 212.254 51.6573 213.098 50.3713 213.821C49.6883 214.183 50.1703 215.147 50.8533 215.027C52.7423 214.665 54.1893 213.218 54.4303 211.37ZM32.3283 199.475C34.9403 197.747 36.4673 192.925 36.1053 189.951C35.9043 188.424 34.4983 187.098 33.0913 186.857C32.9303 186.495 32.4883 186.254 32.1263 186.495C29.2733 188.504 26.2993 192.282 26.0183 195.899C25.7773 199.435 29.3943 201.404 32.3283 199.475ZM16.4953 240.464C16.9773 239.821 16.2143 238.937 15.5713 239.54C14.1243 240.947 12.8793 242.514 11.5523 244.041C11.0303 244.684 11.9143 245.608 12.4763 244.965C13.8423 243.478 15.2493 242.031 16.4953 240.464Z" fill="#FACCE3"/>
<path d="M207.658 182.597C210.31 184.164 212.762 187.701 210.712 190.674C207.095 195.938 197.29 190.071 197.812 184.606C197.169 184.244 196.847 183.441 197.531 182.798C200.063 180.346 204.845 180.949 207.658 182.597ZM203.438 188.584C204.804 189.388 208.662 190.714 208.18 187.7C207.859 185.771 205.447 184.606 203.76 184.284C202.434 184.003 201.349 184.244 200.183 184.525C200.424 186.294 201.951 187.66 203.438 188.584Z" fill="#1D1D1B"/>
<path d="M208.18 187.7C208.662 190.714 204.804 189.388 203.438 188.584C201.951 187.66 200.424 186.293 200.183 184.525C201.348 184.244 202.433 184.003 203.76 184.284C205.448 184.606 207.859 185.771 208.18 187.7Z" fill="#F49AC7"/>
<path d="M204.363 67.0628C204.443 67.7058 203.439 68.0278 203.358 67.3438C202.836 64.4508 202.474 61.5568 202.152 58.6238C202.072 58.1818 202.835 58.0608 202.956 58.5028C203.479 61.3568 203.961 64.1698 204.363 67.0628Z" fill="#1D1D1B"/>
<path d="M199.098 59.7088C201.348 63.1248 202.313 66.9018 201.63 70.9208C201.469 71.8048 200.023 71.5638 200.063 70.6798C200.224 67.1038 199.581 63.6068 197.772 60.5128C197.25 59.6288 198.576 58.8648 199.098 59.7088Z" fill="#1D1D1B"/>
<path d="M194.879 166.362C199.782 170.34 202.755 179.623 196.245 183.762C190.016 187.74 179.93 182.677 175.951 177.533C173.218 173.997 171.49 165.196 176.634 163.589C178.201 162.745 180.331 162.705 182.18 162.625C186.681 162.504 191.302 163.468 194.879 166.362ZM191.704 181.19C199.942 179.743 195.039 170.46 190.699 168.09C187.765 166.483 179.768 164.554 176.996 167.125C176.674 167.406 176.313 167.447 175.911 167.447C175.389 170.863 179.166 176.248 181.256 177.735C183.788 179.502 188.409 181.793 191.704 181.19Z" fill="#1D1D1B"/>
<path d="M190.699 168.09C195.039 170.461 199.942 179.744 191.704 181.19C188.409 181.793 183.787 179.502 181.256 177.734C179.166 176.247 175.389 170.862 175.911 167.446C176.313 167.446 176.674 167.406 176.996 167.124C179.769 164.553 187.766 166.482 190.699 168.09Z" fill="#F49AC7"/>
<path d="M192.307 202.569C193.151 203.132 192.629 204.578 191.584 204.257C189.213 203.534 187.003 202.328 184.793 201.203C183.587 200.64 184.632 198.993 185.798 199.475C188.007 200.399 190.257 201.283 192.307 202.569Z" fill="#1D1D1B"/>
<path d="M187.002 204.176C187.766 204.337 187.605 205.663 186.801 205.582C183.305 205.18 180.09 203.412 177.558 201.001C177.156 200.559 177.759 199.996 178.201 200.358C180.894 202.448 183.747 203.453 187.002 204.176Z" fill="#1D1D1B"/>
<path d="M182.903 113.156C183.184 112.634 184.109 112.995 183.867 113.558C182.862 116.05 181.375 118.22 179.648 120.309C179.246 120.751 178.442 120.108 178.804 119.626C180.372 117.617 181.658 115.406 182.903 113.156Z" fill="#1D1D1B"/>
<path d="M180.975 120.349C181.738 119.786 182.542 120.952 181.939 121.595C179.126 124.488 175.871 126.94 172.737 129.471C172.054 129.993 171.049 129.069 171.732 128.426C174.706 125.654 177.679 122.76 180.975 120.349Z" fill="#1D1D1B"/>
<path d="M178.523 79.7618C179.327 83.1778 178.443 86.8348 176.353 89.6478C174.625 92.0188 170.606 89.8488 172.294 87.2768C173.62 85.2678 174.022 83.1778 173.982 80.9678C173.982 80.9278 173.982 80.9278 173.982 80.8878C173.982 80.1648 173.902 79.4408 173.821 78.6778C173.62 76.9898 176.152 76.4678 176.915 77.8338C176.995 77.9538 177.036 78.1148 177.116 78.2358C177.76 78.5158 178.362 79.0778 178.523 79.7618Z" fill="#1D1D1B"/>
<path d="M176.835 250.711C177.237 251.475 176.112 252.158 175.629 251.394C174.946 250.229 174.102 249.264 172.977 248.501C172.254 248.019 172.897 246.894 173.66 247.336C175.067 248.18 176.072 249.225 176.835 250.711Z" fill="#1D1D1B"/>
<path d="M167.472 111.388C168.758 111.066 169.682 112.915 168.396 113.598C158.993 118.581 146.856 114.884 139.784 107.691C139.181 107.088 140.065 106.244 140.708 106.767C148.906 113.357 157.707 113.558 167.472 111.388Z" fill="#1D1D1B"/>
<path d="M164.498 219.809C166.788 221.939 168.275 226.399 166.346 229.172C164.578 231.744 160.76 231.302 158.711 229.293C156.3 226.922 156.42 222.582 158.189 219.849C158.39 219.568 158.752 219.487 159.033 219.568C160.359 218.282 163.132 218.563 164.498 219.809ZM162.851 227.966C166.428 227.524 163.052 218.362 159.958 222.059C159.797 222.22 159.636 222.3 159.476 222.34C159.355 225.033 159.556 228.408 162.851 227.966Z" fill="#1D1D1B"/>
<path d="M159.957 222.059C163.051 218.362 166.427 227.524 162.85 227.966C159.555 228.408 159.354 225.032 159.474 222.34C159.636 222.3 159.797 222.22 159.957 222.059Z" fill="#F49AC7"/>
<path d="M160.038 18.2778C160.319 17.3938 161.806 17.4738 161.686 18.4788C161.405 21.2518 159.757 23.6628 157.667 25.4708C156.944 26.1138 155.899 25.1088 156.582 24.3858C158.39 22.6178 159.194 20.6078 160.038 18.2778Z" fill="#1D1D1B"/>
<path d="M154.613 192.924C159.998 197.143 163.052 205.904 160.962 212.494C158.872 219.165 152.081 216.995 148.625 212.735C144.727 207.953 143.32 201.443 144.928 195.535C144.928 190.754 151.318 190.312 154.613 192.924ZM152.644 212.214C159.556 216.273 158.149 205.383 157.024 202.409C156.421 200.802 155.617 199.234 154.613 197.868C153.729 196.622 148.304 190.675 147.42 196.662C147.34 197.024 147.139 197.225 146.898 197.385C146.616 202.81 147.942 209.441 152.644 212.214Z" fill="#1D1D1B"/>
<path d="M155.979 18.0768C156.26 17.4738 157.385 17.7548 157.265 18.4388C156.903 21.3728 154.532 23.5428 151.88 24.6278C151.358 24.8288 151.036 23.9848 151.478 23.7438C153.889 22.4168 154.894 20.4878 155.979 18.0768Z" fill="#1D1D1B"/>
<path d="M157.024 202.408C158.149 205.382 159.556 216.272 152.644 212.213C147.942 209.44 146.616 202.81 146.897 197.385C147.138 197.224 147.339 197.023 147.419 196.662C148.303 190.674 153.728 196.622 154.612 197.868C155.617 199.234 156.421 200.801 157.024 202.408Z" fill="#F49AC7"/>
<path d="M154.05 81.0878C154.09 83.6198 153.286 86.2318 151.719 88.2808C149.911 90.6518 146.374 88.6828 147.66 85.9098C148.624 83.8608 148.946 81.7708 149.026 79.6808C148.664 78.5158 148.142 77.4308 148.102 76.1848C148.062 74.5778 149.87 73.6528 151.236 74.4168C151.316 74.4568 151.357 74.5368 151.437 74.5778C151.799 74.7388 152.08 75.0198 152.281 75.3818C153.568 76.8678 154.01 79.1988 154.05 81.0878Z" fill="#1D1D1B"/>
<path d="M153.166 221.215C154.372 221.255 154.372 222.983 153.166 223.104C148.665 223.425 144.526 222.14 140.909 219.527C139.864 218.804 140.788 217.116 141.914 217.799C145.33 219.929 149.147 221.054 153.166 221.215Z" fill="#1D1D1B"/>
<path d="M152.081 16.6698C152.724 21.5728 147.741 26.0328 143.321 27.0378C139.182 27.9618 133.636 24.9888 134.681 20.1258C135.565 15.8658 140.669 13.4948 144.848 12.6918C145.812 11.8078 147.219 11.6868 148.585 12.1288C150.634 12.7718 151.8 14.6208 152.081 16.6698ZM147.942 20.4878C149.027 19.2818 150.032 17.1528 148.947 15.5448C147.942 14.0578 146.455 14.5398 145.089 14.9018C144.727 15.0228 144.446 14.8618 144.245 14.6608C142.557 15.3838 140.95 16.3888 139.624 17.6748C138.78 18.4788 137.615 19.6038 137.615 20.8898C137.655 22.6178 139.504 23.7828 141.031 23.9038C143.562 24.0638 146.294 22.2958 147.942 20.4878Z" fill="#1D1D1B"/>
<path d="M149.389 215.067C150.273 215.348 150.153 216.875 149.148 216.795C146.013 216.433 143.482 214.424 141.995 211.732C141.553 210.968 142.638 210.406 143.12 211.049C144.647 213.258 146.817 214.343 149.389 215.067Z" fill="#1D1D1B"/>
<path d="M148.947 15.5448C150.032 17.1518 149.027 19.2818 147.942 20.4878C146.294 22.2958 143.562 24.0638 141.03 23.9038C139.503 23.7828 137.654 22.6178 137.614 20.8898C137.614 19.6038 138.779 18.4788 139.623 17.6748C140.949 16.3888 142.557 15.3838 144.244 14.6608C144.445 14.8618 144.726 15.0228 145.088 14.9018C146.455 14.5398 147.942 14.0578 148.947 15.5448Z" fill="#F49AC7"/>
<path d="M132.953 12.2098C133.475 14.9828 132.27 17.8358 130.461 19.8848C129.939 20.4478 128.934 19.6838 129.376 19.0408C130.823 16.9108 131.144 14.9018 131.425 12.4098C131.506 11.6068 132.792 11.2848 132.953 12.2098Z" fill="#1D1D1B"/>
<path d="M130.421 35.7578C131.787 36.8028 131.868 38.6508 131.305 40.1778C130.099 43.4728 126.443 45.8038 122.987 45.8438C118.968 45.8838 118.245 42.0658 120.455 39.3338C122.263 37.0838 124.715 35.8378 127.447 35.4358C128.05 35.0738 128.733 35.0338 129.416 35.2348C129.456 35.2348 129.496 35.2348 129.537 35.2348C129.738 35.1948 129.858 35.3148 129.899 35.4758C130.099 35.5568 130.26 35.6378 130.421 35.7578ZM127.246 40.5398C127.286 40.5398 129.657 37.5258 127.969 37.8068C127.406 37.9278 126.964 37.6868 126.763 37.3248C124.955 38.2888 123.307 39.6558 122.584 41.3438C122.142 42.3888 122.222 42.5498 123.347 42.4288C124.151 42.3488 124.914 42.1068 125.597 41.7458C126.201 41.4238 126.764 41.0228 127.246 40.5398Z" fill="#1D1D1B"/>
<path d="M127.97 37.8078C129.658 37.5268 127.287 40.5408 127.247 40.5408C126.765 41.0228 126.202 41.4248 125.599 41.7468C124.916 42.1088 124.152 42.3498 123.349 42.4298C122.224 42.5498 122.144 42.3898 122.586 41.3448C123.309 39.6568 124.957 38.2908 126.765 37.3258C126.965 37.6868 127.407 37.9278 127.97 37.8078Z" fill="#F49AC7"/>
<path d="M113.463 6.74384C125.077 5.77984 122.264 16.4688 117.401 21.9738C115.553 24.0228 113.101 25.9518 110.811 27.3988C105.024 31.0158 95.741 34.3508 90.999 28.0418C86.016 21.4108 93.691 13.9368 99.599 10.4808C103.979 8.91384 108.48 7.62784 113.061 6.66284C113.181 6.70384 113.342 6.74384 113.463 6.74384Z" fill="#F49AC7"/>
<path d="M112.739 195.054C113.342 197.867 112.739 200.358 111.373 202.81C110.77 203.855 109.243 202.931 109.766 201.886C110.771 199.837 111.092 197.586 111.132 195.296C111.132 194.371 112.538 194.13 112.739 195.054Z" fill="#1D1D1B"/>
<path d="M108.64 193.367C109.685 195.859 109.122 198.511 107.595 200.681C107.073 201.485 105.787 200.761 106.309 199.917C107.515 197.948 107.515 195.979 107.233 193.769C107.153 193.045 108.359 192.724 108.64 193.367Z" fill="#1D1D1B"/>
<path d="M97.4293 177.292C101.93 182.717 106.672 192.442 102.533 199.233C98.4343 205.944 91.3213 201.644 88.3073 196.34C86.2983 192.844 85.6153 188.624 85.8963 184.606C86.0573 182.637 86.0573 179.703 87.4633 178.096C87.4633 176.368 88.5483 175.002 90.3973 174.319C93.2893 173.314 95.6603 175.162 97.4293 177.292ZM96.6653 197.104C99.3583 197.707 100.563 196.582 100.282 193.728C100.282 193.206 100.282 192.643 100.282 192.08C100.121 189.669 99.1173 187.097 98.0723 184.967C97.5503 183.922 96.9473 182.918 96.3443 181.953C96.3043 181.873 90.9593 174.117 90.5173 179.019C90.3973 180.024 89.5123 180.506 88.7493 180.345C88.7093 183.52 89.5933 190.271 89.6333 190.432C90.0753 191.838 90.6383 193.245 91.4413 194.531C93.1693 197.345 93.3303 197.425 96.6653 197.104Z" fill="#1D1D1B"/>
<path d="M98.3932 205.422C100.442 207.351 102.934 209.762 102.532 212.856C102.251 215.026 100.362 217.156 98.0312 217.156C95.3392 217.116 94.0122 214.222 93.8122 211.892C93.6112 209.199 94.6162 206.628 96.8662 205.101C97.1072 204.94 97.3482 205.021 97.5092 205.181C97.7902 205.141 98.1122 205.141 98.3932 205.422ZM98.0312 214.263C99.6382 214.303 100.201 212.214 99.8392 210.968C99.4372 209.401 98.2322 208.155 97.1062 207.03C96.6642 208.035 96.3022 209.079 96.2622 210.165C96.1832 211.33 96.4642 214.263 98.0312 214.263Z" fill="#1D1D1B"/>
<path d="M100.242 230.86C102.532 231.905 102.412 235.763 101.689 237.772C100.845 240.063 98.4341 242.273 95.8221 241.75C92.6881 241.147 93.1701 237.731 94.1341 235.521C95.0581 233.472 96.5051 231.543 98.7961 231.301C99.0361 230.779 99.7591 230.619 100.242 230.86ZM99.4781 235.28C99.5991 234.316 99.1971 233.512 98.9151 232.668C97.6291 233.231 96.9461 234.637 96.5041 235.963C96.1021 237.088 95.1781 240.022 97.5091 238.696C98.6741 238.013 99.3571 236.606 99.4781 235.28Z" fill="#1D1D1B"/>
<path d="M99.5579 45.1618C107.716 47.1308 104.139 57.9008 99.8799 62.6828C93.6509 69.6748 83.0019 77.8728 72.9559 74.8188C62.7089 71.7648 66.4859 59.7488 71.3489 53.5208C77.6979 45.4438 89.2319 40.9028 99.1169 44.7608C99.3169 44.8398 99.4779 45.0008 99.5579 45.1618ZM91.9229 65.0128C95.3789 62.1598 107.515 50.5058 97.5089 47.5718C97.0269 47.4108 96.7459 47.0498 96.6249 46.6078C91.0789 46.5278 85.8959 47.0098 80.9129 50.0638C77.9789 51.8718 75.4479 54.2828 73.5189 57.1768C70.7859 61.3158 70.1029 63.1648 72.2329 67.5048C72.5139 70.4788 74.0009 71.8048 76.6939 71.4028C78.5829 71.4028 80.3909 71.1618 82.1589 70.5988C85.7749 69.5138 89.0299 67.3838 91.9229 65.0128Z" fill="#1D1D1B"/>
<path d="M100.282 193.728C100.563 196.581 99.3584 197.706 96.6654 197.104C93.3304 197.426 93.1694 197.345 91.4414 194.532C90.6374 193.246 90.0754 191.839 89.6334 190.433C89.5934 190.272 88.7094 183.521 88.7494 180.346C89.5124 180.507 90.3974 180.024 90.5174 179.02C90.9594 174.117 96.3044 181.873 96.3444 181.954C96.9474 182.918 97.5494 183.923 98.0724 184.968C99.1174 187.098 100.121 189.67 100.282 192.081C100.282 192.643 100.282 193.206 100.282 193.728Z" fill="#F49AC7"/>
<path d="M99.8402 210.968C100.202 212.214 99.6392 214.303 98.0322 214.263C96.4652 214.263 96.1842 211.329 96.2642 210.164C96.3042 209.079 96.6662 208.034 97.1082 207.029C98.2322 208.155 99.4382 209.401 99.8402 210.968Z" fill="#F49AC7"/>
<path d="M98.4332 244.041C98.9152 243.438 99.9202 244.202 99.5182 244.845C98.0712 247.015 96.5042 249.024 94.9372 251.034C94.4552 251.677 93.4102 250.833 93.8522 250.23C95.3392 248.099 96.7862 246.01 98.4332 244.041Z" fill="#1D1D1B"/>
<path d="M98.915 232.668C99.196 233.512 99.598 234.316 99.478 235.28C99.358 236.606 98.674 238.013 97.509 238.696C95.178 240.022 96.102 237.089 96.504 235.963C96.946 234.637 97.629 233.231 98.915 232.668Z" fill="#F49AC7"/>
<path d="M97.5091 47.5728C107.515 50.5068 95.3791 62.1598 91.9231 65.0138C89.0301 67.3848 85.7751 69.5148 82.1581 70.5998C80.3901 71.1628 78.5821 71.4038 76.6931 71.4038C74.0011 71.8058 72.5141 70.4798 72.2321 67.5058C70.1021 63.1658 70.7851 61.3168 73.5181 57.1778C75.4471 54.2848 77.9791 51.8728 80.9121 50.0648C85.8951 47.0108 91.0791 46.5288 96.6241 46.6088C96.7451 47.0498 97.0271 47.4118 97.5091 47.5728Z" fill="#F49AC7"/>
<path d="M97.1471 134.535C97.7101 135.299 96.5041 136.183 95.8611 135.54C93.3291 132.888 92.6461 129.231 93.5701 125.735C93.8511 124.73 95.3381 125.172 95.1371 126.177C94.4951 129.19 95.3791 132.043 97.1471 134.535Z" fill="#1D1D1B"/>
<path d="M84.4079 32.9848C85.0509 33.7078 84.0459 34.7128 83.3229 34.0698C81.8759 32.7838 81.1929 31.2168 81.7159 29.3278C81.8769 28.7648 82.8409 28.6848 82.9619 29.3278C83.1629 30.6548 83.5239 31.9808 84.4079 32.9848Z" fill="#1D1D1B"/>
<path d="M82.6402 80.8468C83.2032 80.0828 84.4482 80.7258 83.9262 81.5698C81.9972 84.7448 77.6172 85.9098 74.4822 83.7798C73.8792 83.3378 74.4022 82.4938 75.0852 82.7748C77.7782 83.9408 80.8722 83.2178 82.6402 80.8468Z" fill="#1D1D1B"/>
<path d="M80.8723 36.1998C81.2743 36.8428 80.3902 37.4458 79.9082 36.9638C78.0592 35.2758 77.6172 32.7038 78.0592 30.2928C78.1792 29.4888 79.3853 29.8508 79.2643 30.6548C78.9433 32.7848 79.7073 34.4718 80.8723 36.1998Z" fill="#1D1D1B"/>
<path d="M78.5812 77.5108C79.3042 77.2298 79.7462 78.3548 79.1032 78.7168C76.7322 79.9228 74.3612 79.9228 71.9502 78.8778C71.2672 78.5968 71.7492 77.5118 72.4322 77.7128C74.5232 78.4348 76.5722 78.3148 78.5812 77.5108Z" fill="#1D1D1B"/>
<path d="M65.3203 122.117C65.6413 122.72 64.7983 123.443 64.3563 122.881C62.3873 120.349 61.5033 117.094 61.5433 113.92C61.5833 113.076 62.7493 113.116 62.8293 113.92C63.0703 116.933 64.0343 119.385 65.3203 122.117Z" fill="#1D1D1B"/>
<path d="M62.949 83.3378C62.989 86.2308 60.457 90.3298 57.725 91.3748C54.711 92.4998 52.822 89.5668 52.863 86.8738C52.943 83.5788 54.912 80.2028 57.605 78.3548C57.806 78.1938 58.047 78.2338 58.288 78.3548C60.699 77.8328 62.949 81.1278 62.949 83.3378ZM59.574 85.2268C60.619 83.0568 59.735 81.6098 57.806 80.7258C57.163 81.6908 56.56 82.6948 56.199 83.7798C55.877 84.6238 54.833 87.9588 56.159 88.6018C57.323 89.1248 59.252 85.9498 59.574 85.2268Z" fill="#1D1D1B"/>
<path d="M61.3019 122.6C61.7039 123.323 60.6589 123.886 60.2169 123.243C58.1269 120.149 57.2829 116.612 57.5649 112.875C57.6049 112.192 58.6899 112.152 58.6499 112.875C58.6089 116.371 59.5329 119.626 61.3019 122.6Z" fill="#1D1D1B"/>
<path d="M58.7303 50.5868C59.2933 49.8638 60.3373 50.7878 59.9353 51.5108C58.7703 53.6808 57.8453 55.9318 57.4033 58.3428C57.2423 59.2268 55.7963 59.0258 55.8363 58.1418C55.9973 55.2478 56.8413 52.7968 58.7303 50.5868Z" fill="#1D1D1B"/>
<path d="M57.8053 80.7258C59.7343 81.6098 60.6183 83.0568 59.5733 85.2268C59.2513 85.9498 57.3233 89.1248 56.1573 88.6028C54.8313 87.9598 55.8763 84.6248 56.1973 83.7808C56.5603 82.6948 57.1623 81.6908 57.8053 80.7258Z" fill="#F49AC7"/>
<path d="M57.5244 172.952C57.6444 172.108 59.0514 172.349 59.0114 173.193C58.9314 176.046 57.0024 178.297 54.3904 179.301C53.7874 179.542 53.3854 178.538 53.9484 178.256C56.0774 177.172 57.1224 175.283 57.5244 172.952Z" fill="#1D1D1B"/>
<path d="M54.9522 214.906C55.3942 214.022 56.9212 214.665 56.5592 215.589C55.2732 218.925 52.2192 220.853 48.6832 220.693C47.6382 220.653 47.6382 219.166 48.6832 219.126C51.4162 218.965 53.6662 217.317 54.9522 214.906Z" fill="#1D1D1B"/>
<path d="M54.7919 169.175C54.8719 172.028 53.5059 174.359 51.1349 175.886C50.2509 176.449 49.5679 175.163 50.3309 174.6C52.0989 173.274 53.1439 171.305 53.3849 169.175C53.5059 168.291 54.7509 168.25 54.7919 169.175Z" fill="#1D1D1B"/>
<path d="M53.104 211.008C53.466 210.445 54.511 210.646 54.43 211.37C54.189 213.219 52.742 214.665 50.854 215.027C50.171 215.148 49.689 214.183 50.372 213.821C51.657 213.098 52.34 212.254 53.104 211.008Z" fill="#1D1D1B"/>
<path d="M44.8252 160.575C53.2642 161.941 44.7852 171.425 42.0522 173.876C39.4402 176.207 34.5782 180.024 30.8002 179.743C29.3532 179.623 28.6302 179.02 28.3892 178.136C31.4832 170.219 36.8282 164.031 44.0212 160.012C44.1822 160.294 44.4242 160.495 44.8252 160.575Z" fill="#F49AC7"/>
<path d="M36.1052 189.951C36.4672 192.925 34.9402 197.747 32.3282 199.475C29.3942 201.404 25.7782 199.435 26.0192 195.899C26.3002 192.282 29.2742 188.505 32.1272 186.495C32.4892 186.254 32.9312 186.495 33.0922 186.857C34.4982 187.098 35.9042 188.424 36.1052 189.951ZM32.4482 194.13C32.5282 193.889 33.8552 188.825 32.2472 189.75C31.9252 189.951 31.5642 189.911 31.2822 189.75C29.8752 191.639 28.5092 193.809 28.6702 195.778C28.7902 198.069 30.6792 197.305 31.5632 196.1C31.9662 195.537 32.2072 194.773 32.4482 194.13Z" fill="#1D1D1B"/>
<path d="M32.2472 189.75C33.8542 188.826 32.5282 193.889 32.4482 194.13C32.2072 194.773 31.9662 195.536 31.5642 196.099C30.6802 197.305 28.7912 198.068 28.6712 195.777C28.5102 193.808 29.8762 191.638 31.2832 189.749C31.5642 189.911 31.9262 189.951 32.2472 189.75Z" fill="#F49AC7"/>
<path d="M32.167 210.566C35.181 210.687 31.363 217.116 30.72 218.081C29.394 220.01 24.933 223.185 25.456 218.563C25.858 214.946 28.189 211.852 31.082 209.762C31.243 210.164 31.564 210.526 32.167 210.566Z" fill="#F49AC7"/>
<path d="M15.57 239.54C16.213 238.937 16.976 239.821 16.494 240.464C15.248 242.031 13.842 243.478 12.475 244.965C11.912 245.608 11.028 244.684 11.551 244.041C12.878 242.514 14.124 240.946 15.57 239.54Z" fill="#1D1D1B"/>
</svg>
