<svg viewBox="0 0 472 131" fill="none" xmlns="http://www.w3.org/2000/svg">
<path d="M468.52 60.839L406.045 21.44C403.791 20.013 400.571 20.239 398.53 21.966L367.726 48.102H142.674C136.473 38.264 125.517 31.709 113.053 31.709C107.472 31.709 102.195 33.029 97.509 35.363L53.183 2.09801C52.197 1.35801 50.6601 0.373001 48.7061 0.373001C46.8231 0.373001 45.111 1.313 44.125 2.888C42.969 4.734 43.005 6.951 44.231 9.479L54.8511 31.348L10.17 1.73801C8.74905 0.796007 7.31405 0.317993 5.90105 0.317993C4.03205 0.317993 2.32805 1.15799 1.22505 2.62199C0.346048 3.79099 -0.515952 5.832 0.372048 8.922L15.965 63.141C16.316 64.36 16.316 66.844 15.964 68.064L0.375048 122.28C-0.514952 125.371 0.348048 127.412 1.22705 128.581C2.33005 130.045 4.03405 130.885 5.90305 130.885C7.31505 130.885 8.75105 130.407 10.171 129.466L54.8531 99.855L44.2331 121.726C43.0061 124.252 42.97 126.47 44.127 128.316C45.113 129.89 46.825 130.831 48.708 130.831C50.661 130.831 52.198 129.847 53.184 129.106L95.792 97.13C100.89 100.034 106.78 101.703 113.055 101.703C126.431 101.703 138.073 94.158 143.961 83.102H367.729L398.537 109.242C399.671 110.201 401.137 110.729 402.666 110.729C403.881 110.729 405.05 110.396 406.043 109.768L468.518 70.368C470.201 69.309 471.206 67.528 471.206 65.602C471.206 63.676 470.198 61.894 468.52 60.839Z" fill="#F49AC7"/>
</svg>
