<svg  viewBox="0 0 275 275" fill="none" xmlns="http://www.w3.org/2000/svg">
<g clip-path="url(#clip0_10_198)">
<path d="M273.181 197.811C275.937 205.853 272.92 217.222 265.806 221.184C265.62 221.422 265.396 221.62 265.061 221.739C239.844 230.652 207.065 227.523 180.619 228.83C149.554 230.375 118.451 231.286 87.386 230.732C71.853 230.455 56.321 229.821 40.825 228.712C31.736 228.078 13.857 229.94 5.588 223.681C-0.036005 219.403 -1.26601 212.945 1.23 207.28C1.23 207.24 1.19299 207.201 1.19299 207.122C1.49099 202.923 4.806 199.635 8.494 198.526C9.76 198.168 13 197.97 14.677 199C9.909 192.741 14.416 185.531 20.078 181.728C19.705 181.451 19.445 181.055 19.407 180.5C15.943 146.471 12.814 111.689 12.032 77.462C12.032 77.343 12.107 77.303 12.144 77.224C12.107 77.145 12.144 77.026 12.144 76.947C12.107 76.59 12.219 76.234 12.628 76.036C14.304 75.165 16.204 75.402 18.029 75.323C20.04 75.283 22.126 75.046 24.1 75.481C24.249 75.481 24.286 75.6 24.398 75.679C24.733 75.719 25.106 75.917 25.217 76.273C25.999 78.412 26.297 80.631 26.595 82.889C26.856 84.949 27.265 87.167 27.228 89.267C29.016 89.307 30.767 89.386 32.554 89.346C33.969 89.306 35.459 89.108 36.912 89.108C36.875 86.375 36.875 83.601 36.912 80.868C36.949 79.402 36.614 77.184 37.918 76.193C39.333 75.084 42.052 75.599 43.692 75.559C46.486 75.48 49.316 75.361 52.11 75.361C52.631 75.361 53.004 75.599 53.265 75.876C53.786 75.797 54.383 76.153 54.457 76.946C54.867 80.709 55.314 84.473 56.059 88.157C57.884 88.197 59.747 88.276 61.572 88.355C63.136 88.395 64.626 88.355 66.079 88.711C66.079 84.393 66.116 80.035 66.228 75.717C66.265 74.529 67.308 73.697 68.388 73.974C70.176 74.41 71.927 74.727 73.789 74.727C75.428 74.727 77.03 74.331 78.669 74.45C79.079 74.49 79.377 74.727 79.637 75.044C80.009 75.163 80.382 75.44 80.419 75.995C81.09 87.246 81.499 98.576 81.723 109.905C87.087 109.707 92.488 109.549 97.852 109.43C99.454 90.494 95.505 70.726 95.841 51.711C95.878 51.473 95.916 51.275 95.99 51.077C95.99 50.998 95.953 50.919 95.99 50.879C96.325 48.978 98.672 49.057 100.087 48.819C102.396 48.423 105.078 47.512 107.388 47.67C109.474 47.789 109.735 49.572 110.07 51.434C110.442 53.652 111.076 56.069 111.187 58.367C113.273 58.208 115.322 58.09 117.37 57.892C117.37 56.268 117.37 54.604 117.37 52.94C117.37 50.959 117.109 48.741 117.743 46.839C118.115 45.611 119.457 45.413 120.201 46.205C123.404 45.967 126.645 45.809 129.848 45.531C130.742 45.452 131.524 46.403 131.524 47.314C131.524 50.919 131.785 54.682 131.487 58.327C132.828 58.208 134.206 58.05 135.547 57.931C135.473 55.99 135.51 54.049 135.584 52.147C135.733 50.047 135.659 47.75 136.702 45.967C137.037 45.412 137.596 45.214 138.155 45.333C142.103 44.343 147.095 42.837 151.117 43.431C152.123 43.312 153.166 43.906 153.128 45.293C152.607 66.527 152.756 87.998 150.446 109.152C153.947 109.192 157.411 109.152 160.876 109.231C160.094 100.238 159.461 91.325 159.014 82.451C158.642 82.055 158.53 81.302 159.088 80.946C159.274 80.669 159.572 80.59 159.87 80.669C163.446 79.084 168.288 79.362 172.013 79.124C172.758 79.084 173.54 79.718 173.689 80.471C174.471 84.116 175.477 87.8 176.036 91.524C177.265 91.128 178.606 91.167 179.984 91.128C181.027 91.088 182.07 91.049 183.113 91.009C183.485 91.009 183.895 91.009 184.268 90.969C183.933 90.137 184.417 88.077 184.454 87.166C184.528 86.057 184.566 84.987 184.64 83.878C184.752 81.937 184.752 79.917 185.311 78.015C185.534 77.223 186.317 76.827 187.024 76.906C189.669 76.391 192.313 76.074 194.958 75.836C196.597 75.677 199.018 74.925 200.359 76.311C201.625 77.618 201.365 80.59 201.551 82.253C201.775 84.432 202.221 86.69 202.221 88.908C203.972 88.67 205.722 88.472 207.51 88.314C208.218 88.235 212.092 88.393 212.464 87.878C212.911 87.205 212.576 83.916 212.613 83.005C212.725 81.143 212.836 79.321 213.023 77.459C213.172 76.429 213.88 75.874 214.625 75.795C214.662 75.755 214.7 75.716 214.737 75.716C217.009 75.003 219.468 74.686 221.814 74.567C223.9 74.408 226.098 74.21 228.035 75.082C228.482 74.21 229.823 74.29 229.86 75.518C231.238 111.964 229.078 150.469 225.092 186.757C229.45 187.827 233.249 190.798 234.441 195.71C236.639 191.63 239.917 188.262 244.647 187.827C248.409 187.51 252.544 190.164 253.549 193.967C258.952 187.234 270.015 188.779 273.181 197.811ZM270.052 204.823C270.313 194.84 260.479 189.73 254.743 198.683C253.737 200.228 251.949 199.515 251.689 198.089C251.391 197.93 251.13 197.653 251.056 197.257C249.827 192.305 245.878 190.245 241.483 192.82C238.876 194.365 237.274 196.98 235.97 199.753C236.827 199.951 237.646 200.268 238.279 200.862C238.949 201.496 238.577 202.803 237.758 203.001C236.492 203.318 235.374 202.961 234.145 202.882C232.692 202.763 231.314 202.961 229.862 203.159C228.148 203.397 227.404 200.941 229.117 200.307C230.048 199.99 231.166 199.713 232.32 199.554C229.899 194.563 226.807 189.848 220.959 189.65C215.111 189.412 211.088 194.087 208.816 199.276C208.406 200.227 206.879 199.791 206.991 198.761C206.991 198.642 207.028 198.523 207.066 198.404C205.353 195.987 203.043 193.65 199.952 194.205C197.494 194.641 195.743 196.859 195.184 199.315C197.344 199.632 199.319 200.464 200.399 202.049C200.995 202.92 200.176 204.188 199.244 204.149C197.717 204.109 196.339 203.317 194.886 202.762C194.476 203.435 193.433 203.554 193.135 202.524C193.135 202.445 193.135 202.405 193.135 202.326C191.235 202.049 189.41 202.247 187.511 202.247C186.691 202.287 186.356 201.059 187.064 200.623C188.144 199.95 189.634 199.514 191.236 199.316C189.485 194.523 191.385 189.135 187.511 184.857C182.631 179.469 174.921 181.331 171.122 187.036C171.01 188.66 168.589 189.017 168.254 187.313C167.434 183.312 165.162 179.469 160.916 179.113C157.228 178.836 154.137 181.49 152.721 184.897C153.913 184.699 155.105 184.699 156.073 185.372C156.781 185.887 156.893 187.075 156.073 187.551C154.62 188.383 152.907 187.947 151.305 188.185C149.554 188.462 147.915 189.096 146.314 189.77C145.01 190.364 144.228 188.146 145.383 187.433C146.501 186.759 147.655 186.284 148.847 185.848C144.75 179.193 140.466 172.577 132.16 178.163C126.014 182.323 123.146 189.255 125.232 196.782C125.53 197.931 123.965 198.683 123.369 197.733C122.587 198.169 121.432 197.931 121.134 196.743C119.719 191.236 114.914 187.79 110.332 192.544C109.438 193.495 107.613 193.178 107.352 191.712C106.942 189.731 106.458 187.949 105.303 186.324C104.26 184.343 102.509 183.313 100.088 183.115C98.672 184.581 97.257 186.086 95.842 187.552C96.065 187.631 96.289 187.71 96.512 187.829C97.443 188.384 97.369 190.285 96.214 190.444C93.681 190.84 90.515 189.771 88.131 189.018C86.753 188.582 86.976 186.166 88.466 186.285C89.732 186.364 90.999 186.602 92.228 186.8C92.191 186.76 92.154 186.76 92.116 186.681C90.328 183.036 89.993 177.451 84.927 177.292C80.792 177.173 76.807 181.293 74.944 185.175C75.093 185.928 75.242 186.68 75.316 187.393C75.577 189.532 72.373 189.849 71.852 187.868C70.436 182.322 67.308 173.567 60.305 177.727C56.282 180.104 53.861 184.58 52.93 189.295C53.973 189.691 54.867 190.325 55.351 191.276C55.723 191.949 55.276 193.059 54.457 192.979C53.6 192.9 52.93 192.504 52.222 192.147C51.589 192.781 50.471 192.543 50.359 191.434C49.13 191.077 47.826 190.998 46.523 191.038C45.331 191.078 45.033 189.018 46.225 188.78C47.231 188.582 48.572 188.463 49.95 188.582C49.466 186.245 48.237 184.224 45.629 184.383C44.363 184.462 43.171 185.215 42.277 186.126C42.053 186.324 41.16 187.473 40.713 188.265C40.75 188.622 40.75 188.978 40.75 189.374C41.085 189.889 40.974 190.602 40.527 190.879C40.49 190.998 40.49 191.117 40.453 191.235C40.118 192.74 38.032 192.661 37.659 191.235C35.983 184.778 31.885 181.411 25.33 183.272C19.705 184.896 13.262 191.235 16.875 197.692C17.62 197.019 18.477 196.543 19.445 196.583C20.227 196.583 20.711 197.494 20.339 198.207C19.631 199.396 18.328 199.99 17.471 201.059C16.391 202.366 15.869 203.872 15.46 205.536C15.199 206.685 13.449 206.447 13.523 205.219C13.56 204.149 13.895 202.763 14.454 201.416C13.485 200.228 9.016 201.971 8.234 202.406C7.303 202.961 6.595 203.634 5.925 204.426C-5.995 225.699 35.947 224.352 44.403 224.907C53.939 225.541 63.511 225.977 73.047 226.294C93.347 226.928 113.685 226.849 133.985 226.373C155.515 225.898 177.044 224.907 198.536 223.679C219.619 222.491 242.34 223.322 262.976 218.529C267.482 215.876 269.903 210.726 270.052 204.823ZM227.626 78.055C225.801 78.61 223.715 78.293 221.815 78.253C220.027 78.253 218.202 78.293 216.377 78.293C216.414 80.709 216.265 83.126 216.153 85.503C216.079 87.325 216.265 89.623 214.812 90.891C213.434 92.079 211.162 91.723 209.486 91.763C206.841 91.842 204.197 91.882 201.589 91.882C201.403 91.842 201.291 91.803 201.142 91.763C200.434 91.961 199.54 91.565 199.242 90.773C198.534 88.951 198.571 86.891 198.348 84.95C198.236 83.88 198.125 82.811 198.013 81.741C197.976 81.266 198.013 79.443 197.938 79.364C197.677 78.928 193.952 79.324 192.909 79.364C191.382 79.404 189.855 79.285 188.365 79.205C188.626 81.82 188.29 84.553 188.141 87.168C188.029 89.03 188.439 91.961 187.322 93.546C186.13 95.25 183.783 94.735 182.07 94.616C179.91 94.497 177.414 94.656 175.44 93.665C174.621 94.378 173.28 94.259 172.833 92.833C171.902 89.585 171.306 86.217 170.635 82.89C167.543 83.167 163.856 83.722 160.801 83.088C167.692 114.622 170.597 149.285 171.789 181.491C171.826 182.442 170.932 182.917 170.187 182.759C170.299 183.036 170.448 183.314 170.522 183.591C174.023 178.877 180.095 176.698 185.57 179.075C192.163 181.927 193.951 188.186 194.323 194.842C195.366 193.138 196.968 191.752 198.979 191.197C202.369 190.246 206.168 191.712 208.03 194.644C210.451 188.86 216.411 186.087 222.073 186.325C223.044 150.471 224.497 113.748 227.626 78.055ZM160.914 175.983C164.192 176.102 167.321 178.122 169.22 180.975C166.315 158.553 163.297 135.537 161.212 112.679C161.137 112.679 161.1 112.679 161.063 112.679C134.691 113.392 108.17 113.432 81.798 112.758C82.208 133.16 82.133 153.601 82.431 173.963C83.25 173.725 84.107 173.567 84.927 173.527C89.546 173.448 93.867 177.924 94.723 182.797C96.25 180.697 98.709 179.509 101.614 179.905C105.972 180.539 108.617 184.025 110.032 188.066C113.906 185.689 118.86 186.283 121.803 189.294C122.362 183.074 126.459 177.33 131.786 174.121C135.883 171.665 139.906 170.833 144.041 173.606C147.095 175.706 149.964 178.994 151.23 182.757C152.868 178.756 156.556 175.865 160.914 175.983ZM100.199 109.351C116.439 108.995 132.717 108.955 148.957 109.113C147.728 88.513 148.845 67.755 149.404 47.116C147.951 47.393 146.424 47.433 145.009 47.552C143.146 47.711 141.284 47.79 139.422 47.869C139.496 49.414 139.161 51.038 139.087 52.623C138.938 54.921 138.975 57.258 138.975 59.556C139.012 60.467 138.193 61.497 137.299 61.378C134.841 61.061 132.345 61.101 129.887 60.863C129.217 60.784 128.919 60.348 128.844 59.873C128.546 59.596 128.323 59.2 128.285 58.645C127.95 55.476 128.099 52.148 128.173 48.939C125.752 48.701 123.331 48.543 120.947 48.345C121.096 49.85 120.947 51.435 120.947 52.94C120.91 55.159 120.91 57.377 120.872 59.595C120.835 60.506 120.09 61.576 119.121 61.457C116.29 61.101 113.459 61.101 110.628 60.863C109.957 61.457 108.952 61.537 108.505 60.507C107.76 58.724 107.537 56.902 107.201 55C107.052 54.128 106.903 53.257 106.754 52.385C106.679 51.989 106.605 51.553 106.568 51.157C105.153 51.038 103.178 51.632 101.912 51.751C100.981 51.83 99.901 51.83 98.858 51.909C99.975 62.645 100.05 73.499 100.497 84.274C100.832 92.634 101.614 101.111 100.199 109.351ZM78.967 175.548C78.967 175.548 78.967 175.548 78.967 175.508C78.595 143.024 77.254 110.302 78.297 77.818C75.615 78.808 72.374 78.571 69.469 77.937C69.245 81.938 68.985 85.9 68.65 89.861C68.613 90.614 68.128 91.01 67.607 91.129C67.421 91.446 67.197 91.684 66.899 91.803C65.074 92.476 62.988 92.08 61.088 92.041C58.928 91.962 56.767 91.843 54.607 91.764C53.899 91.764 53.08 91.249 52.931 90.417C52.26 86.574 51.925 82.692 52.149 78.77L52.112 78.81C50.175 78.889 48.238 78.929 46.301 78.968C44.774 78.968 42.539 78.572 41.049 79.047C39.373 79.562 39.82 82.691 39.671 84.395C39.522 86.217 39.373 88 39.15 89.783C39.858 90.615 39.82 91.962 38.554 92.318C34.978 93.269 30.21 92.516 26.634 91.763C26.485 91.763 26.448 91.644 26.336 91.565C25.665 91.882 24.846 91.724 24.548 90.733C23.803 88.435 23.84 85.821 23.691 83.444C23.579 81.78 23.542 80.156 23.579 78.532C21.754 78.809 19.854 78.651 18.029 78.611C16.763 78.571 15.496 78.611 14.304 78.413C18.625 112.006 20.822 146.472 22.61 180.342C22.945 180.183 23.28 180.025 23.616 179.906C28.682 178.004 36.839 179.708 39.707 184.779C40.713 183.353 42.091 182.244 43.655 181.649C46.225 180.659 49.689 181.689 51.589 183.907C53.377 178.797 56.99 174.281 62.019 173.171C67.718 171.943 71.666 176.221 73.752 181.332C74.982 178.994 76.844 176.974 78.967 175.548Z" fill="#F49AC7"/>
<path d="M262.788 199.237C266.513 200.029 268.599 204.466 266.811 208.031C266.439 208.704 265.321 208.229 265.582 207.476C266.551 204.743 265.135 201.415 262.416 200.702C261.522 200.465 261.894 199.039 262.788 199.237Z" fill="#F49AC7"/>
<path d="M262.081 205.932C262.826 208.032 262.752 210.052 261.82 212.072C261.448 212.904 260.144 212.31 260.405 211.438C260.889 209.735 260.926 208.11 260.405 206.407C260.032 205.298 261.708 204.823 262.081 205.932Z" fill="#F49AC7"/>
<path d="M226.434 196.821C226.508 197.772 225.056 197.93 224.87 197.019C224.46 195.078 222.747 193.612 220.81 193.929C219.767 194.088 219.283 192.463 220.363 192.186C223.379 191.473 226.099 193.572 226.434 196.821Z" fill="#F49AC7"/>
<path d="M221.741 121.037C221.815 125.117 221.145 129.277 219.916 133.12C219.655 134.031 218.352 133.635 218.575 132.724C219.506 128.842 220.102 124.999 220.549 121.038C220.66 120.245 221.741 120.206 221.741 121.037Z" fill="#F49AC7"/>
<path d="M218.574 211.795C219.542 211.399 219.878 212.865 219.207 213.379C218.201 214.211 217.121 214.845 216.041 215.518C214.886 216.191 213.843 214.329 214.998 213.656C216.191 212.944 217.345 212.31 218.574 211.795Z" fill="#F49AC7"/>
<path d="M218.09 126.98C218.127 130.941 217.755 134.784 216.675 138.547C216.414 139.458 215.148 139.102 215.334 138.191C216.079 134.467 216.638 130.783 216.712 126.98C216.712 126.029 218.09 126.029 218.09 126.98Z" fill="#F49AC7"/>
<path d="M196.635 164.376C196.933 163.504 198.237 163.901 197.976 164.772C197.566 166.198 197.492 167.585 197.604 169.05C197.641 169.842 196.449 170.001 196.3 169.248C196.002 167.585 196.151 166 196.635 164.376Z" fill="#F49AC7"/>
<path d="M193.879 157.681C193.953 159.979 194.028 162.316 193.916 164.614C193.879 165.604 192.501 165.604 192.463 164.614C192.351 162.316 192.426 159.979 192.5 157.681C192.538 156.731 193.841 156.731 193.879 157.681Z" fill="#F49AC7"/>
<path d="M187.547 193.81C187.547 194.642 186.392 194.642 186.355 193.81C186.243 191.037 184.157 188.739 181.55 188.541C180.917 188.501 180.879 187.471 181.55 187.471C184.865 187.551 187.472 190.284 187.547 193.81Z" fill="#F49AC7"/>
<path d="M172.684 215.915C173.541 215.955 173.541 217.262 172.684 217.302C171.157 217.342 169.592 217.342 168.065 217.302C167.208 217.262 167.208 215.955 168.065 215.915C169.593 215.876 171.157 215.876 172.684 215.915Z" fill="#F49AC7"/>
<path d="M169.742 98.536C170.711 101.785 170.897 104.954 170.413 108.321C170.301 109.034 169.147 108.876 169.221 108.163C169.593 105.033 169.407 101.904 168.774 98.814C168.624 98.14 169.556 97.863 169.742 98.536Z" fill="#F49AC7"/>
<path d="M168.96 218.926C169.705 218.847 169.817 220.035 169.146 220.233C166.65 220.906 164.08 220.946 161.51 220.669C160.802 220.59 160.802 219.481 161.51 219.481C164.043 219.481 166.501 219.164 168.96 218.926Z" fill="#F49AC7"/>
<path d="M168.066 104.201C168.103 104.716 167.321 104.795 167.247 104.32C166.726 101.468 166.465 98.655 166.204 95.803C166.167 95.248 166.986 95.129 167.061 95.644C167.47 98.497 167.917 101.309 168.066 104.201Z" fill="#F49AC7"/>
<path d="M158.455 128.049C160.504 131.377 161.323 135.14 160.727 139.062C160.615 139.815 159.349 139.617 159.423 138.864C159.758 135.259 159.125 131.813 157.374 128.723C156.966 127.97 158.009 127.336 158.455 128.049Z" fill="#F49AC7"/>
<path d="M155.625 138.508C156.854 141.321 157.338 144.173 157.04 147.263C156.928 148.135 155.662 148.174 155.736 147.263C155.922 144.411 155.513 141.638 154.47 139.023C154.209 138.31 155.327 137.795 155.625 138.508Z" fill="#F49AC7"/>
<path d="M145.009 96.2779C145.195 98.5759 145.046 100.913 144.934 103.211C144.86 104.162 143.519 104.162 143.519 103.211C143.482 100.913 143.37 98.5759 143.631 96.2779C143.742 95.3269 144.934 95.3269 145.009 96.2779Z" fill="#F49AC7"/>
<path d="M135.25 67.557C138.602 68.429 140.651 72.073 139.794 75.638C139.533 76.668 138.118 76.232 138.304 75.242C138.825 72.509 137.335 69.775 134.914 68.864C134.132 68.548 134.43 67.32 135.25 67.557Z" fill="#F49AC7"/>
<path d="M133.536 184.857C134.169 184.302 135.249 185.055 134.728 185.847C133.648 187.511 132.903 189.254 132.977 191.353C133.014 192.462 131.524 192.383 131.413 191.353C131.152 188.898 131.748 186.481 133.536 184.857Z" fill="#F49AC7"/>
<path d="M134.654 73.816C134.766 74.648 133.648 75.044 133.425 74.172C132.941 72.35 132.457 70.567 131.674 68.864C131.302 68.111 132.345 67.438 132.754 68.191C133.685 69.974 134.393 71.796 134.654 73.816Z" fill="#F49AC7"/>
<path d="M122.25 67.597C133.983 65.537 133.238 83.443 132.94 90.811C132.903 91.881 131.971 92.514 131.152 92.475C130.929 92.95 130.519 93.307 129.885 93.386C125.155 93.941 120.163 93.703 115.433 93.861C114.912 93.861 114.614 93.504 114.465 93.069C114.316 92.95 114.167 92.792 114.13 92.514C112.826 85.305 112.901 69.261 122.25 67.597ZM129.625 90.217C129.104 84.196 131.227 70.172 122.846 71.558C116.365 72.628 116.141 85.503 115.881 91.405C120.276 90.415 125.193 89.662 129.625 90.217Z" fill="#F49AC7"/>
<path d="M129.215 188.145C129.55 190.839 129.364 193.414 128.843 196.028C128.694 196.86 127.39 196.662 127.502 195.83C127.763 193.334 127.688 190.878 127.614 188.382C127.614 187.432 129.066 187.194 129.215 188.145Z" fill="#F49AC7"/>
<path d="M126.906 122.86C127.539 122.741 127.837 123.692 127.167 123.93C124.262 124.881 121.394 124.366 118.749 122.821C118.153 122.504 118.674 121.633 119.233 121.91C121.654 123.137 124.299 123.335 126.906 122.86Z" fill="#F49AC7"/>
<path d="M123.367 119.374C124.149 119.414 124.149 120.681 123.367 120.721C121.467 120.761 119.642 120.721 117.78 120.681C116.998 120.681 116.998 119.413 117.78 119.413C119.643 119.374 121.468 119.334 123.367 119.374Z" fill="#F49AC7"/>
<path d="M115.21 147.104C115.359 146.312 116.588 146.51 116.514 147.262C116.402 148.49 116.216 149.718 116.067 150.946C115.955 151.897 114.54 151.501 114.689 150.55C114.838 149.402 115.024 148.253 115.21 147.104Z" fill="#F49AC7"/>
<path d="M104.706 74.846C104.892 74.172 105.861 74.45 105.712 75.123C104.93 79.005 104.744 82.927 104.818 86.889C104.855 87.761 103.626 87.721 103.589 86.889C103.253 82.809 103.738 78.808 104.706 74.846Z" fill="#F49AC7"/>
<path d="M103.626 71.043C103.663 73.182 103.738 75.321 103.626 77.461C103.589 77.857 103.067 77.857 103.03 77.461C102.918 75.322 102.993 73.183 103.03 71.043C103.03 70.608 103.626 70.608 103.626 71.043Z" fill="#F49AC7"/>
<path d="M88.5401 151.739C88.6151 150.63 90.2161 150.59 90.1791 151.739C90.1041 154.71 89.881 157.681 89.658 160.652C89.583 161.682 88.094 161.722 88.131 160.652C88.205 157.681 88.3171 154.71 88.5401 151.739Z" fill="#F49AC7"/>
<path d="M86.6029 154.71C86.6399 158.355 86.3419 161.96 85.9699 165.604C85.8949 166.396 84.8149 166.436 84.8149 165.604C84.8899 161.959 85.0389 158.354 85.4859 154.71C85.5599 153.957 86.6029 153.918 86.6029 154.71Z" fill="#F49AC7"/>
<path d="M83.7718 208.19C84.3678 208.23 84.3678 209.141 83.7718 209.18C82.6918 209.18 81.6118 209.22 80.5308 209.22C79.8608 209.22 79.8608 208.15 80.5308 208.15C81.6118 208.151 82.6918 208.19 83.7718 208.19Z" fill="#F49AC7"/>
<path d="M79.6008 213.499C80.2718 213.578 80.3088 214.687 79.6008 214.687C77.5898 214.608 75.6899 214.093 73.8279 213.261C73.1949 212.984 73.4558 211.914 74.1258 212.152C75.9128 212.905 77.7008 213.261 79.6008 213.499Z" fill="#F49AC7"/>
<path d="M76.3228 96.278C76.6578 99.328 76.1738 102.379 75.3548 105.31C75.2058 105.983 74.2748 105.706 74.4238 105.033C75.0568 102.141 75.2058 99.249 75.3918 96.278C75.4658 95.644 76.2478 95.644 76.3228 96.278Z" fill="#F49AC7"/>
<path d="M72.3002 100.517C72.5232 99.685 73.8642 99.843 73.7902 100.715C73.4922 103.528 73.2692 106.34 73.3432 109.153C73.3802 110.183 71.9652 110.143 71.8532 109.153C71.5552 106.221 71.6292 103.409 72.3002 100.517Z" fill="#F49AC7"/>
<path d="M62.5042 181.846C63.1372 181.331 63.9572 182.48 63.3612 183.034C62.0952 184.104 61.3122 185.371 61.0522 187.075C60.9402 187.867 59.6742 187.669 59.7482 186.877C59.9712 184.738 60.8272 183.074 62.5042 181.846Z" fill="#F49AC7"/>
<path d="M47.269 119.849C47.455 118.977 48.61 119.374 48.498 120.205C48.126 122.463 48.051 124.721 48.237 126.979C48.312 128.009 46.784 128.009 46.71 126.979C46.524 124.524 46.673 122.226 47.269 119.849Z" fill="#F49AC7"/>
<path d="M35.2378 189.651C35.5728 190.681 34.0088 191.354 33.5988 190.364C32.6678 188.264 31.1408 186.6 29.0918 185.729C27.9738 185.293 28.4218 183.352 29.6128 183.788C32.3318 184.778 34.2688 186.719 35.2378 189.651Z" fill="#F49AC7"/>
<path d="M30.6932 94.614C31.5122 94.693 31.5122 95.921 30.6932 96.001C28.4212 96.199 26.2232 95.882 23.9882 95.446C23.1692 95.248 23.5412 93.941 24.3602 94.059C26.4472 94.416 28.5702 94.495 30.6932 94.614Z" fill="#F49AC7"/>
<path d="M28.5701 158.672C28.6821 161.643 28.1601 164.495 27.1921 167.308C26.8571 168.18 25.5531 167.823 25.8141 166.872C26.5221 164.178 26.9691 161.445 27.2301 158.672C27.3041 157.761 28.5331 157.721 28.5701 158.672Z" fill="#F49AC7"/>
<path d="M25.2549 159.187C25.3289 162.515 25.0689 165.763 24.7709 169.051C24.6969 169.923 23.5049 169.962 23.5419 169.051C23.5789 165.684 23.6909 162.356 24.1749 159.028C24.2489 158.315 25.2179 158.553 25.2549 159.187Z" fill="#F49AC7"/>
<path d="M17.0229 215.559C17.6559 216.074 17.0979 217.183 16.3899 216.708C14.2669 215.282 12.8509 213.301 11.8829 210.845C11.5479 209.973 12.8889 209.617 13.2239 210.449C14.0429 212.508 15.3469 214.212 17.0229 215.559Z" fill="#F49AC7"/>
<path d="M12.7771 215.717C13.6341 216.113 13.3361 217.381 12.3671 217.222C9.27515 216.707 7.00315 213.419 7.22715 210.17C7.30215 209.1 8.68015 209.1 8.79115 210.17C9.01515 212.825 10.4681 214.687 12.7771 215.717Z" fill="#F49AC7"/>
</g>
<defs>
<clipPath id="clip0_10_198">
<rect width="274.192" height="274.192" fill="white"/>
</clipPath>
</defs>
</svg>
