<svg  viewBox="0 0 235 223" fill="none" xmlns="http://www.w3.org/2000/svg">
<path d="M149.495 125.313C127.215 125.313 109.091 143.437 109.091 165.717C109.091 167.948 110.9 169.757 113.131 169.757C115.362 169.757 117.171 167.948 117.171 165.717C117.171 147.894 131.672 133.394 149.494 133.394C151.725 133.394 153.534 131.585 153.534 129.354C153.534 127.123 151.726 125.313 149.495 125.313Z" fill="#F49AC7"/>
<path d="M96.9689 56.626C96.9689 34.346 78.8449 16.222 56.5649 16.222C54.3339 16.222 52.5249 18.031 52.5249 20.262C52.5249 22.493 54.3339 24.302 56.5649 24.302C74.3879 24.303 88.8889 38.804 88.8889 56.626C88.8889 58.857 90.6979 60.666 92.9289 60.666C95.1599 60.666 96.9689 58.857 96.9689 56.626Z" fill="#F49AC7"/>
<path d="M234.032 87.406C233.622 86.418 232.835 85.631 231.848 85.221C231.354 85.017 230.83 84.909 230.304 84.909H189.9C187.669 84.909 185.86 86.718 185.86 88.949C185.86 91.18 187.669 92.989 189.9 92.989H220.55L189.063 124.476C188.9 124.639 188.825 124.847 188.696 125.029C178.519 115.221 164.714 109.151 149.496 109.151C118.305 109.151 92.9299 134.526 92.9299 165.717C92.9299 196.908 118.305 222.283 149.496 222.283C180.687 222.283 206.062 196.908 206.062 165.717C206.062 152.528 201.488 140.408 193.893 130.777C194.199 130.602 194.516 130.451 194.777 130.19L226.263 98.704V129.354C226.263 131.585 228.072 133.394 230.303 133.394C232.534 133.394 234.343 131.585 234.343 129.354V88.95C234.343 88.423 234.236 87.899 234.032 87.406ZM197.98 165.717C197.98 192.451 176.229 214.202 149.495 214.202C122.761 214.202 101.01 192.451 101.01 165.717C101.01 138.983 122.761 117.232 149.495 117.232C176.229 117.232 197.98 138.983 197.98 165.717Z" fill="#F49AC7"/>
<path d="M74.971 141.475H60.606V112.987C89.911 110.901 113.131 86.453 113.131 56.626C113.131 25.435 87.756 0.0599976 56.565 0.0599976C25.374 0.0599976 0 25.436 0 56.626C0 86.453 23.221 110.901 52.525 112.987V141.475H38.384C36.153 141.475 34.344 143.284 34.344 145.515C34.344 147.746 36.153 149.555 38.384 149.555H52.525V161.676C52.525 163.907 54.334 165.716 56.565 165.716C58.796 165.716 60.605 163.907 60.605 161.676V149.555H74.969C77.2 149.555 79.009 147.746 79.009 145.515C79.009 143.284 77.202 141.475 74.971 141.475ZM56.566 105.111C29.832 105.111 8.081 83.36 8.081 56.626C8.081 29.892 29.832 8.141 56.566 8.141C83.3 8.141 105.051 29.892 105.051 56.626C105.051 83.36 83.3 105.111 56.566 105.111Z" fill="#F49AC7"/>
</svg>
