<svg viewBox="0 0 235 235" fill="none" xmlns="http://www.w3.org/2000/svg">
<g clip-path="url(#clip0_104_21)">
<path d="M149.495 131.313C127.215 131.313 109.091 149.437 109.091 171.717C109.091 173.948 110.9 175.757 113.131 175.757C115.362 175.757 117.171 173.948 117.171 171.717C117.171 153.894 131.672 139.394 149.494 139.394C151.725 139.394 153.534 137.585 153.534 135.354C153.534 133.123 151.726 131.313 149.495 131.313Z" fill="black"/>
<path d="M96.9689 62.626C96.9689 40.346 78.8449 22.222 56.5649 22.222C54.3339 22.222 52.5249 24.031 52.5249 26.262C52.5249 28.493 54.3339 30.302 56.5649 30.302C74.3879 30.303 88.8889 44.804 88.8889 62.626C88.8889 64.857 90.6979 66.666 92.9289 66.666C95.1599 66.666 96.9689 64.857 96.9689 62.626Z" fill="black"/>
<path d="M234.032 93.406C233.622 92.418 232.835 91.631 231.848 91.221C231.354 91.017 230.83 90.909 230.304 90.909H189.9C187.669 90.909 185.86 92.718 185.86 94.949C185.86 97.18 187.669 98.989 189.9 98.989H220.55L189.063 130.476C188.9 130.639 188.825 130.847 188.696 131.029C178.519 121.221 164.714 115.151 149.496 115.151C118.305 115.151 92.9299 140.526 92.9299 171.717C92.9299 202.908 118.305 228.283 149.496 228.283C180.687 228.283 206.062 202.908 206.062 171.717C206.062 158.528 201.488 146.408 193.893 136.777C194.199 136.602 194.516 136.451 194.777 136.19L226.263 104.704V135.354C226.263 137.585 228.072 139.394 230.303 139.394C232.534 139.394 234.343 137.585 234.343 135.354V94.95C234.343 94.423 234.236 93.899 234.032 93.406ZM197.98 171.717C197.98 198.451 176.229 220.202 149.495 220.202C122.761 220.202 101.01 198.451 101.01 171.717C101.01 144.983 122.761 123.232 149.495 123.232C176.229 123.232 197.98 144.983 197.98 171.717Z" fill="black"/>
<path d="M74.971 147.475H60.606V118.987C89.911 116.901 113.131 92.453 113.131 62.626C113.131 31.435 87.756 6.06 56.565 6.06C25.374 6.06 0 31.436 0 62.626C0 92.453 23.221 116.901 52.525 118.987V147.475H38.384C36.153 147.475 34.344 149.284 34.344 151.515C34.344 153.746 36.153 155.555 38.384 155.555H52.525V167.676C52.525 169.907 54.334 171.716 56.565 171.716C58.796 171.716 60.605 169.907 60.605 167.676V155.555H74.969C77.2 155.555 79.009 153.746 79.009 151.515C79.009 149.284 77.202 147.475 74.971 147.475ZM56.566 111.111C29.832 111.111 8.081 89.36 8.081 62.626C8.081 35.892 29.832 14.141 56.566 14.141C83.3 14.141 105.051 35.892 105.051 62.626C105.051 89.36 83.3 111.111 56.566 111.111Z" fill="black"/>
</g>
<defs>
<clipPath id="clip0_104_21">
<rect width="234.343" height="234.343" fill="white"/>
</clipPath>
</defs>
</svg>
