<svg viewBox="0 0 210 154" fill="none" xmlns="http://www.w3.org/2000/svg">
<path d="M35.2703 154C34.4885 154 33.7456 153.539 33.4232 152.773L29.2855 142.93C28.857 141.91 29.3355 140.736 30.3547 140.307C33.3892 139.03 35.5086 136.478 36.3516 133.535H25.2909C24.1856 133.535 23.2886 132.637 23.2886 131.531V120.853C23.2886 120.783 23.2916 120.714 23.2996 120.647C22.9472 120.752 22.5968 120.878 22.2504 121.024C21.7598 121.23 21.2082 121.233 20.7176 121.032C20.2261 120.831 19.8336 120.443 19.6284 119.954L13.9539 106.453C13.5254 105.432 14.0039 104.259 15.0231 103.83C20.3372 101.594 22.8431 95.45 20.6075 90.1338C19.5253 87.5589 17.505 85.5588 14.919 84.5042C12.333 83.4485 9.49175 83.4636 6.91679 84.5472C6.42623 84.7526 5.87459 84.7556 5.38403 84.5553C4.89247 84.3539 4.50002 83.9663 4.29478 83.4766L0.157028 73.6335C-0.271464 72.6129 0.207086 71.4391 1.22626 71.0104L29.3395 59.1833C28.0671 58.6434 26.6925 58.36 25.2909 58.36C24.1856 58.36 23.2886 57.4626 23.2886 56.3569V45.6805C23.2886 44.5748 24.1856 43.6774 25.2909 43.6774H66.2019L169.649 0.157511C170.669 -0.272149 171.842 0.207589 172.271 1.22716L176.408 11.0703C176.615 11.56 176.617 12.1119 176.416 12.6036C176.215 13.0954 175.828 13.488 175.338 13.6933C170.023 15.9288 167.518 22.0732 169.753 27.3894C170.835 29.9643 172.855 31.9644 175.441 33.02C178.027 34.0757 180.87 34.0596 183.444 32.977C183.933 32.7706 184.485 32.7686 184.976 32.969C185.468 33.1703 185.86 33.5579 186.066 34.0476L190.113 43.6784H207.998C209.103 43.6784 210 44.5758 210 45.6815V56.3579C210 57.4636 209.103 58.361 207.998 58.361C202.233 58.361 197.543 63.0532 197.543 68.8201C197.543 69.1686 197.562 69.5181 197.598 69.8687C197.995 69.7535 198.389 69.6153 198.776 69.452C199.266 69.2467 199.817 69.2437 200.309 69.444C200.8 69.6453 201.193 70.0329 201.398 70.5227L204.879 78.8034C205.886 79.1199 206.931 79.2801 207.998 79.2801C209.103 79.2801 210 80.1775 210 81.2832V95.9297C210 97.0354 209.103 97.9328 207.998 97.9328C202.233 97.9328 197.543 102.625 197.543 108.392C197.543 114.159 202.233 118.851 207.998 118.851C209.103 118.851 210 119.748 210 120.854V131.532C210 132.638 209.103 133.536 207.998 133.536H84.3197L36.0452 153.844C35.792 153.95 35.5286 154 35.2703 154ZM33.7005 143.096L36.3396 149.374L83.0392 129.728C83.0702 129.713 83.1013 129.699 83.1333 129.686L201.07 80.0714L198.433 73.7977C197.793 73.969 197.146 74.0952 196.495 74.1763C196.415 74.1953 196.333 74.2103 196.25 74.2194C189.913 74.9375 183.771 71.3329 181.301 65.4569C178.474 58.7306 181.133 51.0467 187.233 47.4192L186.828 46.4577C186.744 46.2574 186.694 46.0471 186.678 45.8357L183.098 37.3196C176.241 39.1434 168.891 35.6701 166.063 28.9438C163.234 22.2174 165.894 14.5336 171.994 10.906L169.355 4.62738L4.62416 73.9279L7.26219 80.2046C10.2887 79.3943 13.4793 79.5916 16.4307 80.7955C20.0068 82.2547 22.801 85.02 24.2977 88.5814C27.125 95.3078 24.4659 102.992 18.3659 106.619L22.5958 116.682C29.4557 114.858 36.8031 118.331 39.6314 125.058C42.4596 131.784 39.8006 139.469 33.7005 143.096ZM93.8426 129.528H205.997V122.718C198.968 121.739 193.54 115.687 193.54 108.391C193.54 101.094 198.968 95.0414 205.997 94.0639V83.1471C205.548 83.084 205.102 83.0009 204.661 82.8957C204.599 82.9297 204.535 82.9608 204.469 82.9888L184.308 91.4699V121.75C184.308 122.856 183.411 123.753 182.306 123.753H107.8C107.731 123.753 107.661 123.751 107.594 123.743L93.8426 129.528ZM27.2932 129.528H36.5929C36.4847 128.539 36.2355 127.575 35.845 126.649C34.932 124.477 33.3241 122.698 31.2678 121.564C30.0063 122.136 28.6658 122.525 27.2922 122.717V129.528H27.2932ZM117.092 119.747H180.304V93.1545L167.115 98.703V109.765C167.115 110.871 166.218 111.768 165.112 111.768C164.007 111.768 163.11 110.871 163.11 109.765V100.388L145.58 107.762H149.584C150.689 107.762 151.586 108.659 151.586 109.765C151.586 110.871 150.689 111.768 149.584 111.768H136.057L117.092 119.747ZM191.793 47.6836C192.126 48.6691 191.647 49.7608 190.672 50.1704C188.098 51.2531 186.099 53.2742 185.043 55.8611C183.989 58.4481 184.004 61.2905 185.086 63.8654C186.169 66.4414 188.189 68.4405 190.775 69.4961C191.694 69.8717 192.647 70.111 193.608 70.2162C193.562 69.7505 193.538 69.2848 193.538 68.8211C193.538 61.5238 198.966 55.4715 205.995 54.494V47.6836H191.793ZM27.2932 54.495C29.6979 54.8336 31.9836 55.777 33.9418 57.2463L56.6719 47.6836H27.2932V54.495ZM55.1642 135.02C54.9069 135.02 54.6506 134.971 54.4083 134.872C53.9168 134.67 53.5243 134.283 53.3191 133.793L27.6316 72.687C27.2031 71.6674 27.6816 70.4926 28.7008 70.064L149.755 19.1377C150.775 18.709 151.948 19.1878 152.377 20.2073L178.064 81.3143C178.271 81.804 178.273 82.3559 178.072 82.8476C177.871 83.3394 177.484 83.732 176.994 83.9373L55.9401 134.864C55.6918 134.968 55.4275 135.02 55.1642 135.02ZM32.0997 72.9805L56.2334 130.394L173.596 81.0208L149.461 23.6076L32.0997 72.9805ZM66.3701 117.305C65.5882 117.305 64.8453 116.844 64.5229 116.078L48.901 78.9136L42.4936 81.6087C41.4735 82.0374 40.3001 81.5586 39.8716 80.5391C39.4431 79.5185 39.9217 78.3447 40.9409 77.916L49.1863 74.4477C49.1913 74.4457 49.1973 74.4437 49.2023 74.4407L57.4478 70.9724C58.469 70.5437 59.6413 71.0224 60.0698 72.042C60.4983 73.0616 60.0198 74.2364 59.0006 74.665L52.5932 77.3602L68.2152 114.524C68.6437 115.544 68.1651 116.719 67.146 117.147C66.8917 117.255 66.6284 117.305 66.3701 117.305ZM81.083 111.115C80.3011 111.115 79.5582 110.654 79.2358 109.888L62.837 70.8772C62.4085 69.8566 62.8871 68.6828 63.9062 68.2542C64.9274 67.8255 66.0998 68.3053 66.5282 69.3238L82.9271 108.335C83.3556 109.354 82.877 110.529 81.8578 110.958C81.6046 111.065 81.3423 111.115 81.083 111.115ZM88.8589 107.844C88.7478 107.844 88.6366 107.835 88.5275 107.816C88.0049 107.729 87.5264 107.434 87.213 106.985C87.1379 106.876 87.0718 106.757 87.0168 106.63C87.0168 106.629 87.0158 106.628 87.0158 106.627C87.0158 106.626 87.0158 106.626 87.0148 106.625C87.0138 106.622 87.0128 106.62 87.0118 106.617L70.6129 67.6062C70.1844 66.5866 70.663 65.4118 71.6822 64.9832C71.6842 64.9822 71.6862 64.9822 71.6882 64.9812L84.1625 59.7331C84.6521 59.5268 85.2037 59.5248 85.6953 59.7251C86.1868 59.9264 86.5793 60.314 86.7845 60.8037L89.4025 67.0313C89.831 68.0519 89.3525 69.2257 88.3333 69.6543C87.3131 70.083 86.1398 69.6033 85.7113 68.5847L83.8702 64.203L75.0811 67.9006L89.9271 103.218L98.7162 99.5212L97.2145 95.9488C96.786 94.9282 97.2645 93.7544 98.2837 93.3257C99.3049 92.8971 100.477 93.3768 100.906 94.3954L103.183 99.8147C103.612 100.835 103.133 102.009 102.114 102.438L89.6338 107.688C89.3805 107.794 89.1172 107.844 88.8589 107.844ZM108.197 99.7095C107.415 99.7095 106.672 99.2488 106.35 98.4827L89.9511 59.4717C89.5226 58.4521 90.0012 57.2773 91.0204 56.8487C92.0425 56.419 93.2139 56.8987 93.6424 57.9183L99.3159 71.4171L103.07 52.7313C103.287 51.6467 104.344 50.9446 105.428 51.1619C106.512 51.3803 107.214 52.4359 106.997 53.5205L102.226 77.262L122.523 90.4573C123.45 91.0602 123.713 92.3002 123.11 93.2286C122.509 94.156 121.267 94.4194 120.34 93.8165L104.365 83.4315L110.039 96.9303C110.468 97.9498 109.989 99.1246 108.97 99.5533C108.719 99.6585 108.455 99.7095 108.197 99.7095ZM128.931 90.9861C128.818 90.9861 128.706 90.9761 128.596 90.9581C127.943 90.8469 127.36 90.4153 127.084 89.7592L118.892 70.2723C118.89 70.2663 118.887 70.2603 118.884 70.2543C118.882 70.2483 118.879 70.2422 118.877 70.2352L110.685 50.7483C110.613 50.577 110.567 50.4008 110.544 50.2255C110.433 49.3551 110.906 48.4818 111.754 48.1253C111.756 48.1243 111.758 48.1242 111.76 48.1232L124.234 42.8752C125.255 42.4465 126.427 42.9263 126.856 43.9448C127.284 44.9644 126.805 46.1392 125.786 46.5679L115.152 51.0417L121.799 66.854L132.433 62.3802C133.455 61.9505 134.625 62.4302 135.055 63.4498C135.483 64.4694 135.005 65.6442 133.986 66.0728L123.351 70.5467L129.998 86.359L140.632 81.8851C141.653 81.4565 142.826 81.9362 143.254 82.9548C143.683 83.9744 143.204 85.1492 142.185 85.5778L129.705 90.8279C129.453 90.9361 129.189 90.9861 128.931 90.9861ZM155.726 79.7138C154.944 79.7138 154.201 79.2531 153.879 78.4869L138.257 41.3228L131.849 44.0189C130.828 44.4486 129.656 43.9689 129.227 42.9493C128.799 41.9287 129.277 40.7549 130.296 40.3263L146.803 33.3816C147.825 32.9529 148.997 33.4317 149.425 34.4512C149.854 35.4708 149.375 36.6456 148.356 37.0743L141.949 39.7694L157.571 76.9335C157.999 77.9541 157.521 79.1279 156.502 79.5566C156.247 79.6637 155.984 79.7138 155.726 79.7138Z" fill="#F49AC7"/>
</svg>
